<?xml version="1.0" standalone="no"?>
<!DOCTYPE svg PUBLIC "-//W3C//DTD SVG 20010904//EN"
 "http://www.w3.org/TR/2001/REC-SVG-20010904/DTD/svg10.dtd">
<svg version="1.0" xmlns="http://www.w3.org/2000/svg"
 width="300.000000pt" height="300.000000pt" viewBox="0 0 300.000000 300.000000"
 preserveAspectRatio="xMidYMid meet">
<metadata>
Created by potrace 1.10, written by Peter Selinger 2001-2011
</metadata>
<g transform="translate(0.000000,300.000000) scale(0.100000,-0.100000)"
fill="white" stroke="none">
<path d="M1390 2560 c-11 -11 -20 -29 -20 -40 0 -25 34 -60 58 -60 9 0 24 -5
32 -11 11 -8 4 -9 -26 -5 -31 4 -45 2 -55 -10 -11 -14 -10 -19 11 -36 47 -38
140 -4 140 52 0 22 -45 60 -71 60 -10 0 -21 5 -25 11 -4 8 3 9 23 5 21 -5 34
-2 43 9 34 41 -70 65 -110 25z m99 1 c11 -7 11 -10 0 -17 -8 -5 -25 -9 -38 -9
-41 0 -35 -23 8 -35 48 -13 68 -41 52 -76 -12 -28 -64 -40 -104 -25 -40 15
-28 36 19 36 49 0 59 17 18 30 -61 20 -81 56 -48 89 17 17 70 21 93 7z"/>
<path d="M1300 2544 c-15 -39 -12 -54 10 -54 20 0 40 33 40 66 0 25 -40 16
-50 -12z m36 -6 c-3 -13 -6 -26 -6 -30 0 -5 -7 -8 -15 -8 -17 0 -18 4 -9 38 4
12 13 22 21 22 11 0 14 -6 9 -22z"/>
<path d="M1680 2557 c-45 -23 -39 -81 12 -111 18 -11 27 -21 20 -24 -7 -2 -22
4 -32 13 -15 13 -23 14 -39 5 -27 -14 -26 -22 2 -47 46 -42 121 -36 133 11 9
38 -3 60 -44 84 -20 12 -30 22 -22 22 8 0 22 -4 29 -9 16 -10 51 3 51 19 0 11
-36 35 -65 44 -11 3 -31 0 -45 -7z m65 -11 c19 -8 35 -19 35 -25 0 -15 -23
-19 -48 -8 -15 7 -26 7 -32 1 -7 -7 2 -19 27 -35 47 -30 56 -70 21 -93 -27
-18 -86 -7 -109 20 -19 23 8 37 35 18 25 -17 56 -18 56 -1 -1 6 -15 21 -33 32
-23 15 -33 29 -35 53 -3 30 9 43 46 51 1 1 18 -6 37 -13z"/>
<path d="M1175 2530 c-3 -5 3 -44 15 -85 12 -42 19 -81 16 -88 -2 -7 -5 -5 -5
5 -1 26 -18 30 -50 13 -33 -17 -51 -19 -51 -7 0 4 16 14 35 21 35 12 42 25 26
49 -7 11 -15 11 -45 -2 -20 -8 -36 -11 -36 -6 0 5 16 14 35 21 38 14 41 20 25
49 -10 18 -12 18 -68 -6 -31 -14 -60 -29 -65 -33 -8 -8 57 -164 71 -169 5 -1
36 9 68 23 33 15 68 28 79 31 79 15 115 29 115 43 0 32 -14 41 -47 32 l-31 -9
-17 64 c-15 55 -20 64 -41 64 -12 0 -26 -4 -29 -10z m60 -52 c8 -28 15 -58 15
-65 0 -9 8 -12 28 -7 43 10 46 10 49 -7 3 -12 -10 -20 -49 -30 l-53 -14 -22
79 c-12 44 -20 83 -17 88 14 22 35 4 49 -44z m-95 1 c0 -3 -16 -13 -35 -22
-19 -9 -35 -23 -35 -32 0 -18 -1 -18 43 0 33 14 47 12 47 -7 0 -5 -16 -16 -35
-24 -19 -8 -35 -19 -35 -24 0 -19 28 -22 59 -6 38 20 41 20 41 -3 0 -13 -16
-25 -55 -41 -31 -13 -57 -21 -59 -19 -1 2 -16 38 -33 79 l-32 75 57 26 c52 24
71 23 72 -2z"/>
<path d="M1814 2524 c-4 -11 -9 -22 -11 -27 -2 -4 7 -11 21 -17 l25 -9 -24
-62 c-14 -34 -24 -63 -22 -64 6 -5 46 -25 50 -25 3 0 15 29 28 65 20 58 25 64
45 59 16 -4 25 0 33 14 6 12 11 23 11 25 0 3 -26 14 -57 25 -32 11 -66 23 -75
27 -13 5 -20 1 -24 -11z m66 -14 c30 -12 61 -23 67 -25 23 -8 2 -36 -25 -33
-22 3 -27 -3 -46 -54 -15 -41 -26 -58 -38 -58 -23 0 -23 18 2 82 20 52 16 67
-17 68 -6 0 -9 9 -6 20 3 11 6 20 7 20 0 0 26 -9 56 -20z"/>
<path d="M1961 2416 c-45 -77 -41 -125 10 -151 48 -25 85 -19 112 18 14 17 32
47 42 66 17 34 17 35 -5 53 l-23 19 -32 -53 c-20 -34 -39 -54 -53 -56 -30 -5
-29 18 5 80 27 49 27 50 8 64 -10 8 -22 14 -26 14 -4 0 -21 -24 -38 -54z m58
35 c12 -8 10 -19 -14 -63 -32 -61 -29 -88 9 -88 19 0 31 11 52 50 26 48 46 61
59 40 8 -13 -51 -116 -71 -124 -52 -20 -114 16 -114 65 0 26 48 129 60 129 3
0 11 -4 19 -9z"/>
<path d="M940 2430 c-23 -17 -23 -21 -13 -66 6 -27 10 -50 9 -52 -2 -1 -22 11
-45 28 -40 29 -42 30 -66 14 -14 -9 -25 -18 -25 -19 0 -2 36 -29 81 -61 72
-50 83 -55 105 -45 13 6 24 17 24 24 0 16 -37 188 -42 192 -2 2 -14 -5 -28
-15z m43 -87 c14 -76 15 -89 2 -102 -12 -12 -25 -7 -95 39 -72 47 -78 54 -63
65 19 14 19 15 81 -27 47 -32 47 -31 30 42 -10 43 -9 53 3 61 8 5 16 9 20 9 3
0 13 -39 22 -87z"/>
<path d="M2120 2289 l-63 -70 28 -29 c29 -31 83 -60 109 -60 8 0 31 14 51 31
27 24 35 39 35 66 0 45 -11 64 -59 102 l-38 31 -63 -71z m137 -9 c19 -23 15
-74 -7 -103 -37 -47 -84 -44 -148 10 l-33 28 58 67 57 68 30 -28 c17 -15 36
-34 43 -42z"/>
<path d="M2156 2254 c-23 -28 -26 -37 -16 -49 20 -24 50 -28 71 -9 24 22 24
56 1 77 -23 21 -22 22 -56 -19z m62 -22 c-4 -36 -30 -49 -57 -30 l-22 15 27
32 c21 26 29 29 41 20 8 -7 13 -23 11 -37z"/>
<path d="M710 2250 l-45 -40 65 -66 c39 -40 57 -64 45 -60 -11 3 -53 13 -94
22 -71 16 -74 16 -93 -3 -19 -20 -19 -21 31 -98 28 -44 49 -80 47 -82 -2 -2
-27 7 -57 21 -88 38 -96 40 -109 16 -10 -18 -7 -28 14 -60 28 -43 27 -45 -27
-55 -38 -7 -67 -39 -50 -55 10 -10 152 -70 164 -70 5 0 14 10 18 23 8 19 4 24
-26 38 -37 17 -35 22 10 33 27 6 27 7 11 32 -21 31 -15 38 21 24 28 -11 45 -1
45 25 -1 6 -5 2 -11 -7 -9 -16 -13 -17 -46 -3 -51 22 -55 19 -31 -20 11 -20
19 -37 17 -39 -2 -2 -22 -8 -44 -13 l-40 -11 43 -17 c39 -17 53 -37 34 -49 -7
-4 -147 47 -160 59 -1 1 0 9 4 18 3 8 22 18 42 22 63 10 67 17 38 63 -22 35
-26 72 -9 72 2 0 36 -13 75 -30 38 -16 76 -30 84 -30 17 0 48 46 39 59 -8 14
24 62 39 59 19 -5 87 77 80 96 -3 9 -10 16 -15 16 -5 0 -9 5 -9 10 0 7 13 8
35 4 27 -5 41 -2 55 11 28 25 25 33 -15 41 -25 4 -35 11 -35 25 0 28 -36 59
-67 59 -18 -1 -45 -15 -73 -40z m112 13 c10 -9 18 -27 18 -40 0 -17 6 -23 23
-23 12 0 28 -4 35 -9 24 -15 -13 -34 -52 -27 -42 8 -55 -7 -31 -34 15 -16 16
-22 5 -35 -12 -14 -16 -13 -42 12 -17 15 -44 45 -60 66 l-31 38 34 35 c36 38
72 44 101 17z m-135 -168 c105 -24 106 -25 92 -41 -6 -8 -17 -14 -24 -14 -19
0 -57 -51 -51 -67 3 -8 0 -22 -6 -33 -11 -17 -17 -12 -64 58 -39 59 -49 81
-42 95 11 21 10 21 95 2z"/>
<path d="M750 2224 c-11 -12 -10 -18 3 -32 16 -15 18 -15 33 0 19 18 12 48 -9
48 -8 0 -20 -7 -27 -16z m40 -8 c0 -22 -16 -28 -29 -12 -9 11 -9 15 1 19 22 9
28 8 28 -7z"/>
<path d="M640 2061 c0 -3 9 -16 18 -29 16 -21 20 -22 31 -8 7 8 10 19 7 24 -7
11 -56 22 -56 13z m50 -20 c0 -17 -18 -21 -24 -6 -3 9 0 15 9 15 8 0 15 -4 15
-9z"/>
<path d="M2305 2183 c-105 -91 -106 -92 -93 -113 20 -31 24 -29 123 58 47 41
48 43 30 62 -23 25 -24 25 -60 -7z m54 3 c9 -11 -2 -25 -54 -71 -56 -49 -68
-55 -81 -44 -14 12 -9 20 47 71 35 31 67 57 70 58 4 0 12 -6 18 -14z"/>
<path d="M2331 2097 c-31 -18 -50 -54 -51 -95 0 -50 54 -102 107 -102 86 0
125 104 66 170 -33 36 -86 47 -122 27z m89 -12 c85 -44 59 -175 -35 -175 -51
0 -95 44 -95 95 0 27 8 44 29 66 33 33 58 36 101 14z"/>
<path d="M2352 2044 c-41 -28 -19 -94 32 -94 23 0 46 17 46 35 0 5 -5 2 -11
-7 -12 -21 -49 -24 -67 -6 -18 18 -14 56 7 68 27 14 29 13 56 -16 22 -23 23
-24 18 -4 -3 12 -17 26 -30 31 -30 11 -25 12 -51 -7z"/>
<path d="M1100 1562 l0 -529 70 -94 c39 -52 75 -95 80 -97 6 -2 10 207 10 557
l0 561 30 0 30 0 0 -464 0 -463 73 -96 c39 -53 75 -97 80 -97 4 0 7 252 7 560
l0 560 30 0 30 0 0 -265 c0 -148 4 -265 9 -265 5 0 41 43 81 95 39 52 85 102
101 110 l29 16 0 -251 c0 -233 -9 -340 -30 -340 -20 0 -30 91 -30 274 0 113
-4 196 -9 196 -5 0 -41 -43 -80 -96 l-71 -96 0 -71 c0 -119 37 -211 133 -334
44 -57 81 -103 83 -103 2 0 40 72 84 161 l80 161 0 354 c0 242 -3 354 -11 354
-5 0 -52 -25 -104 -55 -51 -30 -96 -55 -99 -55 -3 0 -6 47 -6 105 l0 105 30 0
30 0 0 -76 c0 -43 4 -74 10 -72 5 2 41 45 80 97 61 83 70 100 70 138 l0 43
-244 0 c-241 0 -244 0 -259 -22 l-16 -23 -16 23 c-15 21 -23 22 -151 22 l-134
0 0 -528z m283 492 l23 -26 13 26 14 26 239 0 238 0 0 -36 c0 -29 -14 -55 -70
-131 l-70 -95 0 76 0 76 -40 0 -40 0 0 -120 0 -121 28 15 c15 8 62 35 105 60
43 25 80 46 82 46 3 0 5 -156 5 -348 l0 -347 -78 -156 -78 -155 -75 96 c-92
115 -129 210 -129 326 l0 71 70 93 70 93 0 -193 c0 -153 3 -204 17 -247 9 -29
20 -53 23 -53 3 0 14 24 23 53 14 45 17 98 17 320 l0 267 -42 -26 c-27 -16
-68 -60 -108 -114 l-65 -88 -3 264 -2 264 -40 0 -40 0 -2 -557 -3 -557 -67 91
-68 90 0 467 0 466 -40 0 -40 0 0 -561 0 -561 -70 95 -70 95 0 521 0 521 125
0 c123 0 126 -1 148 -26z"/>
<path d="M2454 1885 c-10 -15 -14 -37 -12 -55 3 -16 1 -30 -4 -30 -4 0 -8 15
-8 33 0 40 -31 65 -50 41 -17 -19 -7 -90 16 -115 21 -23 67 -25 88 -3 10 9 16
33 16 62 1 37 3 43 11 29 5 -9 8 -21 5 -26 -8 -13 21 -34 39 -27 22 8 19 59
-6 90 -27 35 -72 35 -95 1z m90 -7 c14 -20 23 -78 12 -78 -15 0 -35 14 -30 21
7 13 -15 51 -27 44 -5 -4 -9 -25 -9 -49 0 -49 -13 -66 -52 -66 -32 0 -58 40
-58 89 0 56 35 45 42 -14 2 -18 9 -30 18 -30 11 0 14 9 12 32 -2 17 2 41 8 52
15 29 64 28 84 -1z"/>
<path d="M488 1489 c-21 -12 -24 -49 -6 -67 19 -19 56 -14 68 9 9 16 8 26 -5
45 -17 26 -30 29 -57 13z m47 -15 c18 -18 16 -33 -7 -47 -35 -22 -66 21 -36
51 16 16 23 15 43 -4z"/>
<path d="M2475 1480 c-37 -41 24 -97 63 -58 17 17 15 44 -4 62 -21 21 -37 20
-59 -4z m58 -12 c15 -23 1 -48 -27 -48 -33 0 -46 38 -20 57 21 15 34 13 47 -9z"/>
<path d="M562 1161 c-24 -10 -43 -20 -43 -24 1 -4 1 -12 1 -18 0 -6 7 -8 16
-5 11 4 22 -1 31 -14 31 -44 82 -12 67 42 -11 39 -18 40 -72 19z m63 -21 c4
-16 4 -34 0 -40 -11 -17 -44 -11 -55 11 -7 11 -17 18 -25 15 -7 -2 -16 -2 -19
2 -5 5 62 37 86 41 3 1 9 -12 13 -29z"/>
<path d="M584 1135 c-3 -8 -3 -19 1 -25 10 -16 35 7 28 26 -7 18 -22 18 -29
-1z m21 -4 c3 -5 1 -12 -5 -16 -5 -3 -10 1 -10 9 0 18 6 21 15 7z"/>
<path d="M2397 1162 c-35 -38 -8 -102 43 -102 23 0 60 42 60 68 0 23 -33 47
-55 39 -7 -3 -17 -1 -22 4 -6 6 -16 3 -26 -9z m28 -25 c1 -14 8 -21 19 -21 9
1 16 -3 16 -8 0 -5 -10 -8 -22 -6 -17 2 -23 9 -22 26 0 16 -2 20 -10 12 -15
-15 5 -44 32 -48 25 -4 49 32 30 44 -6 4 -14 2 -16 -4 -7 -21 -20 -13 -15 8 3
11 11 20 17 20 17 0 36 -21 36 -39 0 -21 -30 -51 -51 -51 -39 0 -65 60 -37 88
14 14 21 9 23 -21z"/>
<path d="M608 1043 l-46 -26 16 -33 c21 -45 46 -46 38 -1 -5 29 -5 30 6 10 13
-26 26 -29 34 -9 3 8 13 12 25 9 10 -3 19 -3 19 0 0 12 -34 77 -39 77 -3 0
-27 -12 -53 -27z m67 -13 c9 -16 11 -30 6 -30 -5 0 -11 7 -15 15 -3 8 -12 15
-20 15 -10 0 -13 -6 -9 -16 5 -13 7 -13 14 -2 5 7 9 9 9 3 0 -5 -4 -16 -9 -24
-7 -11 -11 -9 -20 8 -16 28 -34 16 -27 -18 6 -25 6 -25 -9 -7 -22 29 -19 40
23 64 20 12 38 22 39 22 1 0 9 -13 18 -30z"/>
<path d="M2344 1049 c-7 -12 32 -49 51 -49 6 1 -2 8 -17 18 -16 9 -28 20 -28
25 0 8 27 -4 70 -32 l24 -16 -49 -11 -50 -11 28 -13 c15 -7 27 -17 27 -22 0
-13 -12 -9 -54 17 -40 24 -39 28 9 38 15 4 14 5 -6 6 -15 0 -32 -5 -38 -13
-10 -12 -4 -19 32 -40 24 -14 49 -26 55 -26 18 0 14 28 -5 39 -15 8 -12 11 17
18 18 5 35 13 37 18 5 16 -94 67 -103 54z"/>
<path d="M672 939 c-42 -30 -52 -57 -19 -51 12 2 15 -5 14 -24 -2 -32 19 -43
28 -15 3 11 16 21 28 23 29 4 34 47 10 76 l-18 21 -43 -30z m68 -36 c0 -18 -6
-23 -25 -23 -16 0 -25 -6 -25 -15 0 -8 -4 -15 -10 -15 -5 0 -7 13 -3 31 6 30
5 31 -16 20 -36 -20 -23 5 16 31 34 23 39 23 50 9 7 -9 13 -26 13 -38z"/>
<path d="M694 919 c-10 -17 13 -36 27 -22 12 12 4 33 -11 33 -5 0 -12 -5 -16
-11z m26 -9 c0 -5 -4 -10 -10 -10 -5 0 -10 5 -10 10 0 6 5 10 10 10 6 0 10 -4
10 -10z"/>
<path d="M2271 926 c-8 -10 -1 -20 34 -45 40 -29 65 -34 65 -12 0 4 -20 22
-44 39 -35 26 -46 29 -55 18z m88 -53 c2 -2 2 -6 -1 -9 -4 -3 -24 8 -47 24
-22 16 -38 32 -34 35 3 3 22 -6 42 -21 20 -14 38 -27 40 -29z"/>
<path d="M2224 868 c-4 -6 2 -17 12 -25 10 -8 18 -19 17 -24 -2 -5 2 -9 7 -9
16 0 12 12 -12 37 -12 13 -17 23 -12 23 6 0 25 -16 44 -35 l34 -35 -49 0 c-26
0 -45 -3 -41 -7 10 -10 79 -4 91 8 6 7 -4 22 -30 44 -44 38 -51 40 -61 23z"/>
<path d="M746 831 c-39 -40 -43 -72 -6 -49 14 9 22 9 34 -2 22 -17 33 -4 18
20 -14 23 -10 25 18 8 30 -19 35 -2 9 31 -13 16 -26 30 -29 30 -3 1 -23 -17
-44 -38z m69 -1 c19 -21 8 -29 -12 -9 -6 6 -17 8 -23 4 -8 -5 -9 -10 -1 -18
19 -19 12 -31 -8 -13 -16 15 -19 15 -31 1 -7 -9 -15 -13 -18 -10 -8 7 49 65
63 65 7 0 20 -9 30 -20z"/>
<path d="M2182 818 c-7 -10 1 -23 33 -50 35 -31 45 -35 54 -24 8 10 7 16 -4
26 -9 7 -18 10 -22 7 -3 -4 2 -9 11 -13 9 -3 13 -11 10 -16 -6 -9 -74 49 -74
63 0 4 12 10 28 12 l27 4 -26 2 c-15 0 -31 -5 -37 -11z"/>
<path d="M2132 767 c-17 -19 62 -97 80 -79 10 10 4 21 -28 53 -33 33 -43 38
-52 26z m72 -77 c-8 -7 -64 58 -64 73 1 6 16 -6 35 -28 18 -22 31 -42 29 -45z"/>
<path d="M827 752 c-36 -39 -7 -102 45 -102 24 0 58 35 58 60 0 27 -35 60 -63
60 -13 0 -31 -8 -40 -18z m77 -8 c22 -21 20 -47 -4 -69 -44 -40 -107 25 -69
71 15 19 54 18 73 -2z"/>
<path d="M842 738 c-18 -18 -14 -46 9 -58 21 -12 49 1 49 23 0 6 -6 2 -14 -8
-12 -16 -16 -17 -30 -6 -9 7 -16 19 -16 26 0 18 30 27 46 14 9 -7 14 -8 14 -1
0 9 -22 22 -39 22 -4 0 -12 -5 -19 -12z"/>
<path d="M2046 702 c-4 -7 8 -79 19 -111 4 -10 8 -11 20 -1 8 7 13 16 10 20
-7 11 12 23 38 24 35 2 28 20 -18 49 -48 29 -61 32 -69 19z m64 -27 c39 -25
54 -42 26 -32 -16 7 -59 -21 -51 -33 3 -5 1 -11 -4 -14 -5 -3 -12 11 -15 32
-4 20 -9 45 -12 55 -7 24 9 21 56 -8z"/>
<path d="M2070 666 c0 -20 19 -31 32 -18 7 7 3 14 -11 21 -17 10 -21 9 -21 -3z"/>
<path d="M944 649 c-18 -29 -23 -44 -15 -52 7 -7 15 -6 26 3 13 11 15 9 15
-14 0 -16 5 -26 15 -26 8 0 15 8 15 18 0 9 9 23 20 30 11 7 20 19 20 27 0 19
-36 55 -55 55 -8 0 -26 -19 -41 -41z m70 12 c18 -20 12 -51 -10 -51 -8 0 -15
-10 -15 -22 -1 -21 -2 -21 -6 -3 -8 31 -22 42 -33 25 -5 -8 -12 -12 -15 -8 -9
8 37 78 51 78 6 0 18 -8 28 -19z"/>
<path d="M974 649 c-10 -17 13 -36 27 -22 12 12 4 33 -11 33 -5 0 -12 -5 -16
-11z m26 -9 c0 -5 -4 -10 -10 -10 -5 0 -10 5 -10 10 0 6 5 10 10 10 6 0 10 -4
10 -10z"/>
<path d="M1930 632 l-23 -19 27 -46 c18 -31 32 -44 42 -40 9 3 12 12 8 25 -5
17 -4 18 15 6 17 -10 23 -10 33 0 11 11 10 15 -4 23 -10 6 -18 18 -18 27 0 42
-43 54 -80 24z m54 2 c9 -3 16 -15 16 -26 0 -12 8 -27 18 -34 14 -11 15 -13 2
-14 -9 0 -21 5 -27 11 -16 16 -32 2 -26 -24 3 -12 -7 -2 -22 23 -25 42 -25 45
-9 57 20 15 26 15 48 7z"/>
<path d="M1940 613 c0 -5 5 -15 11 -23 9 -13 10 -12 5 3 -3 11 0 17 10 17 9 0
12 -5 8 -12 -4 -7 -3 -8 5 -4 6 4 9 12 6 17 -7 11 -45 12 -45 2z"/>
<path d="M1061 591 c-24 -46 -27 -71 -8 -71 14 0 42 49 33 58 -3 2 -10 -8 -16
-23 -6 -15 -13 -25 -17 -21 -8 7 27 86 39 86 4 0 8 -10 8 -22 0 -13 4 -30 9
-38 6 -8 7 -18 4 -23 -3 -5 -9 -3 -14 4 -7 11 -9 10 -9 -3 0 -21 11 -23 28 -6
8 8 11 5 9 -15 -3 -43 17 -35 41 17 26 54 16 77 -22 50 -29 -20 -34 -18 -38
13 -5 41 -25 38 -47 -6z m98 -54 c-12 -23 -24 -44 -27 -47 -6 -6 2 26 13 53 6
14 3 16 -11 11 -14 -4 -12 -1 6 14 35 29 43 17 19 -31z"/>
<path d="M1837 593 c-36 -15 -46 -39 -15 -37 10 1 21 -14 28 -37 7 -22 17 -39
22 -39 15 0 19 26 8 54 -8 21 -7 32 1 43 20 24 -3 32 -44 16z m34 -12 c-11 -7
-11 -16 -1 -45 17 -51 6 -56 -14 -7 -11 29 -20 39 -31 35 -30 -12 -14 7 18 21
33 14 52 11 28 -4z"/>
<path d="M1226 525 c-20 -27 -36 -52 -36 -57 0 -5 15 -6 34 -3 25 5 35 3 39
-9 4 -9 13 -16 22 -16 13 0 15 9 9 53 -10 81 -25 88 -68 32z m58 -27 c5 -46
-5 -65 -18 -32 -5 12 -14 15 -37 10 -33 -6 -33 -4 9 52 29 39 37 34 46 -30z"/>
<path d="M1254 514 c3 -8 2 -12 -4 -9 -6 3 -10 1 -10 -4 0 -6 7 -11 15 -11 8
0 15 9 15 20 0 11 -5 20 -11 20 -6 0 -8 -7 -5 -16z"/>
<path d="M1642 543 c-21 -4 -23 -8 -17 -46 11 -74 12 -74 53 -68 36 6 52 31
24 37 -7 1 -8 0 -2 -3 22 -10 8 -23 -25 -23 -30 0 -35 3 -35 23 0 12 -3 32 -6
43 -4 17 0 23 21 28 15 4 30 4 33 1 3 -3 -4 -8 -16 -12 -22 -5 -31 -33 -11
-33 5 0 8 4 5 9 -4 5 4 7 16 3 l22 -5 -22 -10 c-22 -10 -31 -37 -11 -37 5 0 7
5 4 11 -4 6 2 13 14 16 26 7 27 19 4 32 -10 6 -12 11 -5 11 6 0 12 7 12 15 0
15 -13 17 -58 8z"/>
<path d="M1351 508 c2 -31 2 -31 6 -5 6 35 19 34 38 -3 20 -39 33 -38 38 3 3
22 4 15 5 -20 2 -57 -7 -66 -32 -30 -16 22 -16 22 -4 -6 18 -44 42 -30 49 28
3 30 2 53 -5 57 -16 11 -26 -1 -26 -30 l0 -27 -20 33 c-11 17 -27 32 -35 32
-11 0 -15 -9 -14 -32z"/>
<path d="M1520 527 c-29 -14 -40 -68 -19 -93 17 -21 83 -15 87 8 2 12 -4 16
-30 15 -27 -2 -33 2 -33 18 0 15 7 20 27 20 37 1 47 14 24 31 -24 17 -25 17
-56 1z m44 -3 c24 -9 19 -22 -7 -17 -31 6 -55 -22 -40 -45 6 -10 22 -17 37
-17 14 1 26 -3 26 -7 0 -13 -55 -9 -68 4 -7 7 -12 24 -12 38 0 23 11 35 47 49
1 1 8 -2 17 -5z"/>
<path d="M1370 472 c0 -34 -15 -44 -23 -14 -4 13 -5 11 -6 -5 -1 -32 27 -29
40 4 7 18 6 30 -1 37 -7 7 -10 0 -10 -22z"/>
</g>
</svg>
