<?xml version="1.0" standalone="no"?>
<!DOCTYPE svg PUBLIC "-//W3C//DTD SVG 20010904//EN"
 "http://www.w3.org/TR/2001/REC-SVG-20010904/DTD/svg10.dtd">
<svg version="1.0" xmlns="http://www.w3.org/2000/svg"
 width="2000.000000pt" height="2000.000000pt" viewBox="0 0 2000.000000 2000.000000"
 preserveAspectRatio="xMidYMid meet">
<metadata>
Created by potrace 1.16, written by Peter Selinger 2001-2019
</metadata>
<g transform="translate(0.000000,2000.000000) scale(0.100000,-0.100000)"
fill="white" stroke="none">
<path d="M9490 17206 c0 -19 -22 -26 -80 -26 -39 0 -49 -4 -53 -20 -3 -13 -14
-20 -30 -20 -16 0 -26 -7 -30 -20 -3 -13 -14 -20 -30 -20 -20 0 -28 -8 -41
-40 -9 -22 -22 -40 -30 -40 -9 0 -17 -15 -21 -41 -5 -29 -11 -39 -21 -35 -12
4 -14 -19 -14 -135 0 -132 1 -141 20 -146 15 -4 20 -14 20 -40 0 -26 5 -36 20
-40 10 -3 22 -14 25 -24 4 -10 13 -19 21 -19 13 0 18 -12 15 -32 0 -5 10 -8
23 -8 16 0 27 -7 31 -19 4 -13 17 -21 37 -23 39 -4 46 -21 16 -36 -19 -10 -13
-11 33 -6 65 7 99 -1 99 -22 0 -11 18 -14 83 -14 84 0 115 -9 103 -29 -5 -7 8
-11 39 -11 51 0 61 -12 46 -53 l-11 -27 -114 0 c-122 0 -146 4 -146 26 0 8
-10 14 -24 14 -22 0 -60 29 -40 31 5 0 -1 4 -13 9 -13 5 -23 16 -23 25 0 11
-11 15 -44 15 -35 0 -45 -4 -49 -20 -3 -11 -12 -20 -20 -20 -8 0 -17 -9 -20
-20 -3 -11 -12 -20 -20 -20 -8 0 -17 -9 -20 -20 -3 -11 -14 -20 -25 -20 -11 0
-22 -8 -25 -19 -3 -14 -15 -21 -38 -23 l-34 -3 -3 -63 c-2 -45 0 -62 8 -57 7
4 14 -2 17 -14 4 -14 13 -21 30 -21 16 0 27 -7 30 -20 3 -11 14 -20 24 -20 12
0 19 -7 19 -20 0 -13 7 -20 19 -20 30 0 51 -11 51 -26 0 -9 11 -14 29 -14 26
0 65 -28 45 -32 -27 -6 251 -13 368 -9 123 3 137 6 141 22 4 15 15 19 45 19
31 0 41 4 45 20 4 15 14 20 38 20 18 0 29 3 26 7 -11 10 13 33 34 33 11 0 19
6 19 14 0 7 11 22 25 32 15 11 25 29 25 44 0 14 9 31 20 38 19 11 20 23 20
157 0 121 -3 147 -15 151 -8 4 -18 24 -21 45 -5 29 -11 39 -25 39 -12 0 -19 7
-19 20 0 13 -7 20 -20 20 -18 0 -25 10 -21 33 0 4 -10 7 -24 7 -18 0 -25 5
-25 20 0 17 -7 20 -40 20 -33 0 -40 3 -40 20 0 18 -7 20 -59 20 -55 0 -91 16
-74 33 3 4 -24 7 -61 7 -68 0 -111 13 -101 31 4 5 -15 9 -44 9 -52 0 -74 15
-49 34 8 6 17 19 21 29 5 14 19 17 80 17 50 0 78 -4 86 -13 6 -8 8 -17 4 -20
-3 -4 8 -7 26 -7 24 0 34 -5 38 -20 4 -16 14 -20 49 -20 23 0 46 -4 49 -10 9
-15 25 -12 25 5 0 8 -5 14 -11 13 -21 -5 -22 23 -1 29 11 2 22 13 25 24 3 10
12 19 20 19 8 0 17 9 20 20 3 11 12 20 20 20 8 0 17 9 20 20 3 12 14 20 26 20
14 0 21 6 21 19 0 11 9 23 20 26 30 10 27 59 -5 73 -14 6 -25 18 -25 26 0 7
-13 16 -30 20 -18 3 -30 12 -30 21 0 10 -10 15 -31 15 -22 0 -32 5 -36 20 -4
16 -14 20 -53 20 -58 0 -80 7 -80 26 0 11 -28 14 -150 14 -122 0 -150 -3 -150
-14z m330 -52 c105 -31 225 -108 218 -139 -2 -8 -43 -55 -92 -105 l-89 -91
-74 38 c-65 33 -82 37 -142 36 -95 -2 -151 -33 -151 -83 0 -50 23 -61 249
-115 164 -39 236 -71 303 -133 80 -74 117 -191 98 -309 -35 -213 -220 -326
-535 -325 -140 0 -214 19 -312 79 -57 35 -141 106 -158 133 -4 7 11 26 36 48
24 20 72 63 107 96 l62 60 28 -22 c46 -38 125 -82 167 -94 22 -6 74 -12 115
-12 83 0 124 15 159 60 20 25 20 28 4 55 -22 36 -82 62 -209 88 -227 45 -361
133 -408 268 -67 193 32 390 229 458 111 37 286 42 395 9z"/>
<path d="M8865 17131 c11 -19 -34 -31 -113 -31 -94 0 -92 3 -92 -116 0 -71 -3
-87 -20 -104 -16 -16 -20 -33 -20 -95 0 -78 -16 -136 -32 -113 -5 8 -7 -7 -6
-37 l3 -50 108 -3 c73 -2 107 1 102 8 -8 12 36 30 76 30 27 0 29 3 29 39 0 30
4 40 20 44 17 4 20 14 20 60 0 46 3 55 20 60 17 4 20 14 20 56 0 39 4 53 19
60 12 7 20 26 24 61 8 64 19 84 28 50 5 -19 7 -15 8 21 1 25 -4 50 -11 57 -15
15 -192 17 -183 3z m70 -243 c-38 -117 -73 -218 -77 -224 -8 -11 -215 -50
-224 -42 -3 3 0 25 5 49 22 96 61 318 61 347 0 18 3 32 8 33 4 0 63 11 132 24
69 12 134 23 145 24 18 1 14 -17 -50 -211z"/>
<path d="M11247 17080 c-4 -16 -14 -20 -45 -20 -31 0 -41 -4 -45 -20 -3 -11
-14 -20 -25 -20 -11 0 -22 -9 -25 -20 -3 -11 -12 -20 -21 -20 -9 0 -16 -7 -16
-15 0 -9 -11 -20 -24 -25 -16 -6 -26 -19 -30 -43 -4 -19 -13 -38 -21 -41 -12
-4 -15 -33 -15 -157 0 -142 1 -151 20 -156 11 -3 20 -14 20 -24 0 -10 12 -31
26 -46 25 -27 26 -28 5 -31 -25 -4 -31 -52 -6 -52 9 0 26 -7 39 -16 16 -10 26
-12 31 -5 3 6 20 11 37 11 21 0 31 -6 35 -20 3 -11 13 -20 23 -20 20 0 43 -23
33 -33 -3 -4 11 -7 31 -7 29 0 39 -4 43 -20 4 -15 14 -20 39 -20 31 0 39 -8
35 -32 0 -5 13 -8 29 -8 20 0 33 -6 37 -17 4 -10 13 -22 20 -26 11 -7 11 -12
2 -23 -8 -10 -36 -14 -101 -14 -81 0 -90 2 -95 20 -4 15 -14 20 -39 20 -27 0
-34 4 -34 20 0 12 -7 20 -16 20 -9 0 -18 9 -21 20 -3 11 -12 20 -19 20 -20 0
-17 47 4 59 15 9 15 12 2 21 -8 5 -21 8 -28 5 -8 -3 -40 -5 -72 -5 -49 0 -58
-3 -63 -20 -4 -15 -14 -20 -38 -20 -18 0 -29 -3 -26 -7 13 -12 -15 -33 -44
-33 -18 0 -29 -5 -29 -14 0 -16 -21 -26 -56 -26 -23 0 -24 -3 -24 -60 0 -53 2
-60 20 -60 16 0 20 -7 20 -35 0 -29 5 -37 25 -45 14 -5 25 -16 25 -24 0 -7 9
-16 20 -19 11 -3 20 -12 20 -20 0 -8 9 -17 20 -20 11 -3 20 -12 20 -20 0 -8
13 -17 30 -20 18 -4 30 -13 30 -22 0 -10 10 -15 31 -15 22 0 32 -5 36 -20 5
-17 14 -20 60 -20 45 0 56 -3 60 -19 4 -16 19 -19 126 -25 151 -8 135 -8 239
0 73 5 87 9 91 25 4 14 14 19 41 19 26 0 36 4 36 16 0 9 9 18 20 21 11 3 20
12 20 19 0 8 11 19 24 24 15 5 27 20 31 39 4 17 12 31 19 31 9 0 15 21 19 62
4 41 11 64 21 70 12 7 16 26 16 79 0 62 -2 71 -20 76 -17 4 -20 14 -20 55 0
30 -4 47 -10 43 -5 -3 -17 10 -27 29 -9 20 -23 36 -31 36 -8 0 -16 9 -19 20
-3 11 -14 20 -24 20 -12 0 -19 7 -19 20 0 16 -7 20 -31 20 -22 0 -32 5 -36 20
-4 13 -14 20 -30 20 -16 0 -27 7 -30 20 -4 15 -14 20 -40 20 -26 0 -36 5 -40
20 -4 15 -14 20 -40 20 -26 0 -36 5 -40 19 -3 14 -15 21 -37 23 -28 3 -31 6
-31 38 l0 35 53 3 c52 3 88 -11 76 -29 -3 -5 14 -9 36 -9 33 0 43 -4 47 -20 3
-11 12 -20 19 -20 8 0 14 -9 14 -19 0 -11 5 -23 11 -26 13 -9 139 4 138 13 -4
26 4 32 41 32 22 0 39 3 39 8 -4 24 6 30 51 34 42 2 50 0 50 -14 0 -13 8 -18
30 -18 23 0 30 5 30 19 0 11 5 23 10 26 6 3 10 18 10 32 0 24 -2 25 -39 20
l-39 -5 -6 49 c-6 41 -10 49 -27 49 -12 0 -23 8 -26 19 -3 11 -11 22 -19 25
-8 3 -14 12 -14 21 0 9 -9 15 -21 15 -12 0 -23 8 -26 20 -3 11 -14 20 -25 20
-11 0 -22 9 -25 20 -4 15 -14 20 -40 20 -26 0 -36 5 -40 20 -4 16 -14 20 -53
20 -45 0 -79 18 -63 33 3 4 -66 7 -154 7 -152 0 -161 -1 -166 -20z m353 -48
c127 -45 212 -101 270 -179 23 -29 43 -59 46 -67 4 -10 -16 -26 -63 -52 -37
-20 -89 -50 -114 -65 -25 -16 -50 -29 -55 -29 -5 0 -33 22 -61 49 -58 56 -121
81 -200 81 -44 0 -58 -5 -78 -25 -14 -13 -25 -30 -25 -38 0 -31 44 -67 142
-118 220 -112 308 -183 355 -285 33 -73 39 -136 19 -214 -21 -80 -56 -141
-113 -196 -156 -152 -578 -106 -777 84 -40 39 -136 174 -136 192 0 5 37 27 83
48 45 21 102 51 127 67 l44 28 16 -23 c72 -105 171 -172 282 -190 70 -11 106
-4 140 27 48 43 5 94 -150 178 -208 112 -278 176 -322 292 -44 116 -11 268 77
358 36 36 131 87 183 98 57 12 255 -1 310 -21z"/>
<path d="M8049 16943 c-66 -3 -78 -6 -82 -23 -4 -17 -14 -20 -71 -20 -49 0
-66 -3 -66 -14 0 -7 -7 -19 -15 -26 -17 -14 -20 -66 -5 -75 6 -3 10 -33 10
-66 0 -46 5 -65 20 -81 15 -16 20 -36 20 -74 0 -39 4 -55 17 -62 13 -8 18 -27
21 -78 3 -48 9 -73 20 -82 11 -8 17 -33 20 -78 3 -50 9 -68 23 -77 16 -10 19
-24 19 -84 0 -62 3 -74 20 -83 17 -9 20 -21 20 -75 0 -54 3 -67 20 -77 16 -11
20 -24 20 -72 0 -43 4 -62 17 -71 9 -7 19 -32 22 -56 l6 -44 58 -3 c38 -2 57
1 53 7 -11 18 31 31 99 31 46 0 64 3 59 11 -11 19 18 29 84 29 46 0 62 4 62
14 0 19 23 26 90 26 49 0 58 3 63 20 5 18 14 20 76 20 54 0 71 3 71 14 0 18
22 26 76 26 l44 0 0 86 c0 60 -3 83 -11 78 -19 -12 -29 19 -29 94 0 49 -3 71
-11 67 -6 -4 -13 2 -16 14 -5 19 -12 21 -89 21 -65 0 -84 -3 -84 -14 0 -20
-23 -26 -91 -26 -45 0 -59 -3 -59 -15 0 -18 -34 -27 -90 -23 -40 3 -43 5 -45
31 0 16 -8 33 -18 38 -13 8 -17 23 -17 65 0 47 -3 57 -20 61 -18 5 -20 14 -20
80 0 66 -2 75 -20 80 -18 5 -20 14 -20 80 0 66 -2 75 -20 80 -18 5 -20 14 -20
78 0 65 -2 74 -20 80 -18 6 -20 15 -20 77 0 80 -13 99 -65 96 -16 -1 -64 -4
-106 -5z m130 -110 c45 -191 200 -785 205 -790 3 -3 94 19 203 47 109 29 209
54 222 54 22 1 26 -8 57 -124 18 -69 33 -132 34 -141 0 -12 -56 -30 -257 -83
-142 -37 -307 -81 -368 -98 -60 -17 -116 -31 -124 -32 -17 -1 -12 -19 -116
389 -47 182 -112 431 -144 555 -33 124 -56 228 -53 231 4 3 57 18 117 34 61
15 119 31 130 36 11 4 32 8 46 8 25 1 28 -4 48 -86z"/>
<path d="M12140 16925 c0 -8 -9 -15 -20 -15 -17 0 -20 -7 -20 -39 0 -48 -16
-94 -30 -86 -6 4 -10 -11 -10 -38 0 -36 -4 -46 -20 -50 -17 -4 -20 -14 -20
-59 0 -75 24 -98 104 -98 49 0 59 -3 63 -20 4 -16 14 -20 43 -20 63 0 70 -6
70 -61 0 -38 -4 -51 -20 -59 -14 -7 -20 -21 -20 -43 0 -21 -7 -36 -20 -45 -16
-9 -20 -23 -20 -61 0 -40 -3 -50 -20 -54 -17 -4 -20 -14 -20 -60 0 -46 -3 -55
-20 -60 -17 -4 -20 -14 -20 -56 0 -40 -4 -52 -20 -61 -14 -8 -20 -21 -20 -45
0 -24 -6 -39 -20 -47 -15 -10 -20 -24 -20 -59 0 -39 -4 -48 -20 -52 -19 -5
-21 -12 -18 -79 l3 -73 50 -3 c50 -3 79 -17 69 -33 -3 -5 15 -9 39 -9 42 0 75
-19 60 -33 -3 -4 35 -7 85 -7 l92 0 0 56 c0 47 3 57 20 61 16 4 20 14 20 43 0
29 4 39 20 43 17 4 20 14 20 60 0 47 3 57 20 62 14 4 20 15 20 35 0 39 18 83
30 75 6 -4 10 9 10 32 0 53 10 83 26 83 10 0 14 13 14 44 0 36 4 46 20 51 17
5 20 15 20 60 0 45 3 53 21 58 16 4 20 12 17 38 -2 26 1 34 15 37 12 2 20 -4
24 -17 4 -17 13 -21 48 -21 40 0 73 -19 58 -33 -3 -4 14 -7 38 -8 57 -1 95
-13 92 -27 -4 -16 19 -15 42 2 11 8 16 19 12 30 -8 21 3 78 15 74 5 -2 10 -32
12 -68 2 -53 6 -66 24 -78 27 -18 28 -48 2 -55 -15 -4 -20 -14 -20 -40 0 -26
-5 -36 -20 -40 -15 -4 -20 -14 -20 -36 0 -19 -6 -34 -15 -37 -8 -3 -17 -14
-20 -24 -3 -11 -15 -22 -26 -25 -14 -5 -19 -15 -19 -40 0 -24 -5 -34 -20 -38
-15 -4 -20 -14 -20 -37 0 -19 -8 -39 -18 -49 -15 -13 -20 -36 -25 -113 -8
-137 2 -288 19 -288 7 0 16 -16 20 -35 3 -19 12 -35 20 -35 7 0 18 -18 24 -40
7 -25 17 -40 26 -40 9 0 18 -9 21 -20 3 -11 14 -20 24 -20 12 0 19 -7 19 -20
0 -14 7 -20 21 -20 12 0 23 -8 26 -20 4 -14 14 -20 35 -20 21 0 31 -6 35 -20
3 -11 13 -20 23 -20 29 0 50 -11 50 -26 0 -10 13 -14 46 -14 37 0 47 -4 51
-20 5 -19 14 -20 154 -20 121 0 149 3 149 14 0 17 22 26 65 26 24 0 34 5 38
20 3 11 14 20 25 20 11 0 22 9 25 20 3 12 14 20 26 20 13 0 21 6 21 16 0 9 9
18 20 21 11 3 20 14 20 24 0 12 7 19 20 19 13 0 20 7 20 20 0 11 7 20 15 20 8
0 21 16 30 36 8 19 19 33 25 29 6 -4 10 5 10 22 0 17 8 34 20 43 11 8 20 26
20 41 0 18 6 28 20 32 15 4 20 14 20 41 0 26 4 36 15 36 9 0 19 8 22 18 4 9
15 24 25 33 10 9 18 28 18 42 0 16 7 26 20 30 15 4 20 14 20 40 0 26 5 36 20
40 15 4 20 14 20 41 0 26 4 36 16 36 9 0 18 9 21 20 3 10 14 22 24 25 16 5 19
16 19 66 0 44 -4 59 -14 59 -8 0 -16 7 -20 15 -3 10 -19 15 -46 15 -37 0 -45
7 -41 33 0 4 -12 7 -28 7 -29 0 -57 21 -44 33 3 4 -8 7 -25 7 -29 0 -37 8 -33
33 0 4 -24 7 -54 7 -44 0 -56 -4 -65 -20 -6 -11 -15 -18 -21 -15 -5 4 -9 -11
-9 -34 0 -30 -5 -43 -20 -51 -11 -6 -20 -16 -20 -23 0 -7 -9 -19 -20 -27 -11
-8 -20 -26 -20 -41 0 -18 -6 -28 -20 -32 -15 -4 -20 -14 -20 -40 0 -26 -5 -36
-20 -40 -12 -3 -20 -14 -20 -25 0 -31 -11 -52 -26 -52 -8 0 -14 -8 -14 -19 0
-10 -9 -21 -20 -24 -15 -4 -20 -14 -20 -40 0 -26 -5 -36 -20 -40 -15 -4 -20
-14 -20 -41 0 -24 -5 -36 -14 -36 -7 0 -16 -9 -19 -20 -3 -11 -12 -20 -21 -20
-9 0 -16 -7 -16 -15 0 -9 -6 -18 -14 -21 -8 -3 -16 -14 -19 -25 -5 -17 -15
-19 -87 -19 -73 0 -82 2 -87 20 -3 11 -14 20 -25 20 -11 0 -22 9 -25 20 -3 11
-12 20 -19 20 -11 0 -14 18 -14 79 0 70 2 79 20 84 15 4 20 14 20 40 0 26 5
36 20 40 15 4 20 14 20 40 0 26 5 36 19 40 11 3 22 17 26 36 4 18 13 35 21 38
8 3 14 13 14 23 0 10 9 20 20 23 15 4 20 14 20 40 0 26 5 36 20 40 15 4 20 14
20 40 0 26 5 36 19 40 13 3 22 17 26 41 4 21 13 36 21 36 8 0 14 8 14 19 0 10
8 21 18 24 15 3 20 18 26 71 8 76 4 86 -28 86 -25 0 -51 22 -39 33 3 4 -10 7
-30 7 -34 0 -42 7 -38 33 0 4 -15 7 -35 7 -27 0 -37 5 -41 20 -3 11 -13 20
-23 20 -20 0 -43 23 -33 33 3 4 -9 7 -27 7 -35 0 -70 -30 -70 -60 0 -25 -37
-33 -43 -9 -3 11 -14 19 -25 19 -12 0 -23 9 -27 20 -9 29 -32 24 -38 -9 -3
-16 -12 -35 -20 -43 -8 -8 -18 -33 -22 -56 -9 -53 -25 -45 -25 12 0 34 4 45
19 49 15 4 20 18 26 73 4 42 2 80 -4 97 -10 25 -15 27 -65 27 -50 0 -86 17
-69 33 3 4 -20 7 -51 7 -49 0 -59 3 -63 20 -4 17 -14 20 -55 20 -41 0 -51 3
-55 20 -4 17 -14 20 -55 20 -41 0 -51 3 -55 20 -4 17 -14 20 -55 20 -41 0 -51
3 -55 20 -4 17 -14 20 -55 20 -41 0 -51 3 -55 20 -4 17 -14 20 -55 20 -41 0
-51 3 -55 20 -4 16 -14 20 -50 20 -36 0 -46 4 -50 20 -7 25 -63 29 -63 5z
m425 -180 c220 -80 426 -155 458 -167 44 -16 57 -25 54 -37 -9 -27 -96 -251
-102 -261 -3 -6 -18 -4 -38 5 -56 25 -258 98 -261 94 -2 -2 -27 -69 -55 -149
-29 -80 -85 -235 -125 -345 -41 -110 -86 -235 -101 -278 -34 -93 -17 -92 -213
-21 -105 37 -132 51 -128 63 6 21 226 620 272 743 34 93 37 118 11 118 -32 0
-282 100 -280 112 1 7 20 58 42 113 22 55 42 112 45 128 4 15 10 27 14 27 4 0
187 -65 407 -145z m903 -379 c67 -37 125 -73 128 -78 3 -5 -5 -26 -19 -46 -34
-52 -274 -473 -318 -558 -82 -160 -50 -268 96 -329 90 -37 168 -15 236 66 36
43 332 552 358 617 7 17 17 32 22 32 8 0 211 -111 267 -147 l23 -14 -47 -87
c-74 -137 -293 -511 -334 -572 -47 -69 -133 -151 -188 -179 -198 -101 -473
-41 -658 144 -90 90 -154 229 -154 336 0 117 39 215 190 474 51 88 119 210
152 270 85 155 85 156 106 147 10 -4 73 -38 140 -76z"/>
<path d="M7457 16759 c-5 -19 -11 -21 -56 -17 -46 4 -69 -4 -39 -14 26 -9 -6
-28 -48 -28 -24 0 -43 -3 -43 -7 4 -27 -4 -33 -45 -33 -35 0 -45 -4 -49 -20
-4 -16 -14 -20 -53 -20 -26 0 -44 -3 -41 -7 13 -13 -16 -33 -48 -33 -24 0 -34
-5 -38 -20 -4 -16 -14 -20 -45 -20 -31 0 -41 -4 -45 -20 -4 -16 -14 -20 -50
-20 -36 0 -46 -4 -50 -20 -4 -17 -14 -20 -56 -20 -38 0 -51 -4 -51 -15 0 -8
-9 -19 -20 -25 -16 -9 -20 -21 -20 -61 0 -42 3 -52 20 -56 15 -4 20 -14 20
-40 0 -26 5 -36 20 -40 15 -4 20 -14 20 -40 0 -26 5 -36 20 -40 16 -4 20 -14
20 -50 0 -27 4 -42 10 -38 13 8 30 -37 30 -77 0 -21 6 -31 20 -35 15 -4 20
-14 20 -40 0 -26 5 -36 20 -40 16 -4 20 -14 20 -49 0 -33 3 -42 14 -38 14 5
26 -33 26 -82 0 -14 8 -25 20 -29 15 -5 20 -15 20 -38 0 -20 8 -39 20 -50 12
-10 20 -29 20 -47 0 -17 9 -39 20 -50 13 -13 20 -33 20 -56 0 -27 5 -37 20
-41 15 -4 20 -14 20 -40 0 -26 5 -36 20 -40 12 -3 20 -14 20 -27 1 -29 23 -56
46 -55 18 0 18 1 0 8 -16 6 -11 10 26 19 26 7 59 12 74 12 15 0 24 3 21 7 -14
13 17 33 53 33 29 0 39 4 43 20 4 16 14 20 45 20 31 0 41 4 45 20 4 16 14 20
51 20 33 0 46 4 46 14 0 17 21 26 60 26 19 0 29 6 33 20 4 15 14 20 40 20 26
0 36 5 40 20 4 17 14 20 57 20 35 0 49 4 44 11 -10 16 15 29 58 29 29 0 36 3
32 15 -6 15 13 22 71 27 29 3 30 5 33 56 3 47 1 54 -17 59 -17 4 -21 13 -21
49 0 33 -3 42 -14 38 -13 -5 -26 33 -26 80 0 12 -9 27 -20 34 -11 7 -20 19
-20 27 0 11 -13 15 -54 15 -30 0 -58 5 -61 10 -4 6 -11 7 -17 4 -7 -5 -3 -11
11 -16 33 -12 20 -32 -21 -36 -26 -2 -37 -9 -41 -23 -4 -15 -14 -19 -49 -19
-24 0 -49 5 -56 12 -7 7 -12 8 -12 4 0 -5 7 -14 17 -21 25 -19 6 -35 -41 -35
-35 0 -45 -4 -49 -20 -4 -16 -14 -20 -45 -20 -31 0 -41 -4 -45 -20 -4 -15 -14
-20 -40 -20 -27 0 -36 -5 -43 -22 -6 -19 -8 -14 -11 23 -3 36 -8 48 -24 52
-31 8 -22 27 13 27 17 0 28 3 25 7 -13 13 16 33 48 33 24 0 34 5 38 20 4 16
14 20 51 20 33 0 46 4 46 14 0 17 22 26 65 26 24 0 34 5 38 20 4 17 14 20 59
20 78 0 88 11 81 89 -5 51 -10 65 -25 69 -15 3 -18 11 -14 31 7 29 -1 44 -26
54 -13 5 -18 18 -18 50 0 54 -13 67 -66 67 -33 0 -43 -4 -47 -20 -4 -16 -14
-20 -51 -20 -32 0 -48 5 -55 18 -8 13 -14 15 -27 6 -31 -18 -28 -34 6 -34 46
0 33 -24 -15 -28 -28 -3 -43 1 -52 14 -10 14 -15 15 -28 4 -18 -15 -11 -30 16
-30 39 0 13 -25 -29 -28 -27 -2 -42 -8 -42 -17 0 -16 -22 -25 -65 -25 -24 0
-34 -5 -38 -20 -9 -35 -54 -24 -48 13 0 4 -3 7 -9 7 -5 0 -10 9 -10 20 0 12 7
20 17 20 9 0 13 3 10 7 -13 13 16 33 48 33 24 0 34 5 38 20 4 17 14 20 58 20
29 0 49 3 46 7 -15 14 18 33 56 33 22 0 37 3 34 7 -14 13 17 33 52 33 25 0 40
6 49 20 7 11 23 20 37 20 27 0 33 -18 13 -38 -9 -9 -5 -12 20 -12 30 0 32 2
32 35 0 19 -4 35 -9 35 -5 0 -12 28 -16 63 -5 42 -14 68 -27 80 -14 14 -18 29
-16 60 3 35 -1 43 -19 52 -18 8 -23 18 -23 47 l0 38 -59 0 c-51 0 -59 -3 -64
-21z m83 -33 c0 -7 23 -68 50 -134 55 -133 55 -132 38 -132 -14 0 -479 -199
-495 -211 -14 -13 45 -149 65 -149 8 0 26 7 40 15 40 22 433 187 436 183 15
-18 104 -244 98 -249 -7 -6 -352 -154 -432 -185 -25 -9 -46 -18 -47 -19 -3 -1
59 -144 70 -161 5 -8 84 21 249 93 134 57 247 109 252 114 26 25 42 6 94 -115
28 -68 52 -130 52 -139 0 -9 -13 -20 -32 -26 -18 -5 -112 -44 -208 -86 -96
-42 -222 -96 -280 -120 -58 -24 -150 -64 -205 -88 -55 -25 -103 -42 -107 -39
-7 8 -23 44 -293 675 -103 241 -185 440 -183 442 1 1 37 16 78 33 41 17 221
94 400 171 179 77 333 141 343 141 9 0 17 -6 17 -14z"/>
<path d="M6429 16303 c-26 -3 -38 -10 -42 -24 -3 -13 -14 -19 -31 -19 -17 0
-26 -6 -26 -15 0 -9 -12 -18 -30 -21 -21 -5 -30 -12 -30 -25 0 -15 -7 -19 -34
-19 -25 0 -35 -5 -39 -20 -3 -14 -14 -20 -31 -20 -19 0 -26 -5 -26 -19 0 -10
-9 -21 -20 -24 -26 -7 -28 -62 -3 -75 13 -8 18 -29 21 -101 4 -77 7 -91 23
-96 16 -6 19 -17 19 -80 0 -60 3 -76 18 -84 14 -8 18 -26 20 -98 3 -62 8 -91
18 -99 20 -16 31 -84 14 -84 -6 0 -14 9 -17 20 -4 13 -14 20 -30 20 -16 0 -27
7 -30 20 -3 11 -13 20 -23 20 -20 0 -43 23 -33 33 3 4 -8 7 -26 7 -24 0 -34 5
-38 20 -3 11 -14 20 -25 20 -11 0 -22 9 -25 20 -4 14 -14 20 -34 20 -22 0 -29
5 -29 20 0 15 -7 20 -25 20 -18 0 -25 5 -25 20 0 13 -7 20 -19 20 -30 0 -51
11 -51 26 0 8 -10 14 -25 14 -18 0 -25 5 -25 20 0 14 -7 20 -21 20 -12 0 -23
8 -26 20 -5 17 -14 20 -63 20 -49 0 -58 -3 -63 -20 -3 -12 -14 -20 -26 -20
-14 0 -21 -6 -21 -20 0 -16 -7 -20 -30 -20 -20 0 -30 -5 -30 -15 0 -9 -12 -18
-30 -21 -20 -5 -30 -12 -30 -25 0 -14 -9 -19 -42 -21 l-43 -3 -3 -57 c-3 -53
-1 -58 17 -58 12 0 26 -9 33 -20 8 -12 24 -20 40 -20 21 0 28 -5 28 -20 0 -15
7 -20 26 -20 17 0 28 -6 31 -20 4 -13 14 -20 30 -20 16 0 27 -7 30 -20 4 -13
14 -20 30 -20 16 0 27 -7 30 -20 4 -13 14 -20 30 -20 16 0 27 -7 30 -20 4 -13
14 -20 30 -20 16 0 27 -7 30 -20 4 -13 14 -20 30 -20 16 0 27 -7 30 -20 4 -13
14 -20 30 -20 16 0 27 -7 30 -20 4 -13 14 -20 30 -20 16 0 27 -7 30 -20 3 -13
14 -20 29 -20 21 0 29 -10 25 -32 0 -5 11 -8 25 -8 17 0 28 -6 31 -20 4 -14
14 -20 34 -20 22 0 29 -5 29 -20 0 -14 7 -20 24 -20 25 0 51 -22 39 -33 -3 -4
8 -7 25 -7 25 0 32 -4 32 -20 0 -13 7 -20 19 -20 21 0 45 -23 34 -33 -3 -4 10
-7 30 -7 30 0 37 -4 37 -20 0 -14 7 -20 21 -20 12 0 23 -8 26 -20 5 -17 14
-20 60 -20 37 0 52 3 47 11 -8 14 14 29 44 29 15 0 22 6 22 20 0 14 7 20 24
20 15 0 26 7 29 20 4 14 14 20 35 20 21 0 31 6 35 20 3 12 14 20 26 20 20 0
21 5 21 96 0 87 -2 96 -20 101 -18 5 -20 14 -20 98 0 85 -2 94 -20 100 -18 6
-20 15 -20 86 0 66 -3 84 -20 101 -17 18 -20 36 -20 105 0 54 -4 82 -10 78
-18 -11 -30 44 -30 135 0 80 -2 89 -20 95 -18 6 -20 15 -20 91 0 54 -4 83 -10
79 -19 -12 -32 48 -25 117 5 60 4 68 -14 77 -11 6 -21 10 -23 9 -2 -1 -19 -3
-39 -5z m33 -125 c28 -156 156 -774 227 -1096 17 -77 17 -84 2 -101 -31 -35
-231 -163 -246 -157 -8 3 -77 47 -152 99 -546 372 -868 589 -894 602 -16 9
-29 19 -29 24 0 4 59 48 132 97 72 49 136 93 142 98 8 5 69 -31 171 -102 88
-61 201 -139 252 -174 51 -35 125 -87 165 -115 40 -29 76 -53 79 -53 4 0 1 26
-7 58 -8 31 -43 194 -79 362 -36 168 -69 314 -74 326 -5 11 -6 25 -3 30 4 5
54 40 112 76 58 37 119 79 135 92 17 14 35 25 40 26 6 0 18 -42 27 -92z"/>
<path d="M14510 15721 c-5 -11 -10 -29 -10 -40 0 -14 -6 -21 -20 -21 -11 0
-19 -3 -19 -7 3 -21 -2 -33 -16 -33 -8 0 -15 -7 -15 -16 0 -9 -9 -18 -20 -21
-11 -3 -20 -12 -20 -20 0 -8 -9 -17 -20 -20 -11 -3 -20 -12 -20 -19 0 -8 -7
-17 -15 -20 -8 -4 -15 -11 -15 -18 0 -6 -12 -22 -26 -36 -14 -13 -30 -34 -35
-47 -5 -13 -15 -23 -23 -23 -10 0 -13 -6 -9 -16 4 -10 -1 -17 -15 -21 -11 -2
-22 -13 -25 -24 -3 -10 -12 -19 -21 -19 -9 0 -16 -7 -16 -16 0 -9 -9 -18 -20
-21 -11 -3 -20 -12 -20 -20 0 -8 -9 -17 -20 -20 -11 -3 -20 -10 -20 -17 0 -6
-14 -24 -30 -40 -17 -16 -30 -35 -30 -43 0 -7 -7 -16 -15 -19 -8 -4 -15 -15
-15 -25 0 -10 -7 -19 -15 -19 -8 0 -15 -7 -15 -16 0 -9 -9 -18 -19 -21 -11 -3
-21 -13 -24 -24 -3 -10 -12 -19 -20 -19 -8 0 -17 -9 -20 -20 -3 -11 -12 -20
-21 -20 -9 0 -16 -7 -16 -15 0 -9 -7 -18 -15 -21 -8 -3 -17 -14 -20 -25 -4
-10 -13 -19 -20 -19 -24 0 -36 -37 -33 -98 3 -55 4 -57 32 -60 18 -2 30 -11
33 -23 4 -12 14 -19 30 -19 16 0 27 -7 30 -19 3 -11 13 -21 24 -24 10 -3 19
-12 19 -20 0 -8 9 -17 20 -20 11 -3 20 -12 20 -21 0 -9 8 -16 20 -16 13 0 20
-7 20 -20 0 -14 7 -20 21 -20 12 0 23 -8 26 -20 3 -11 12 -20 19 -20 8 0 19
-9 26 -20 7 -11 23 -20 35 -20 16 0 23 -6 23 -20 0 -14 7 -20 21 -20 12 0 23
-8 26 -20 3 -11 14 -20 25 -20 11 0 22 -9 25 -20 4 -15 14 -20 39 -20 31 0 39
-8 35 -32 0 -5 20 -8 45 -8 37 0 47 -4 51 -20 5 -19 14 -20 173 -20 159 0 168
1 173 20 4 16 14 20 51 20 25 0 45 3 45 8 -4 23 4 32 26 32 15 0 25 6 25 14 0
15 21 26 51 26 12 0 19 7 19 20 0 13 7 20 19 20 10 0 21 9 24 20 3 11 12 20
20 20 8 0 17 9 20 20 3 11 11 20 19 20 7 0 21 18 31 40 9 22 21 40 27 40 5 0
10 8 10 19 0 10 9 21 20 24 15 4 20 14 20 39 0 22 6 37 20 46 19 12 20 23 20
216 0 196 -1 205 -20 211 -15 5 -20 15 -20 42 0 26 -5 36 -20 40 -11 3 -20 14
-20 24 0 12 -7 19 -20 19 -15 0 -20 7 -20 28 0 32 -9 46 -32 55 -10 3 -18 13
-18 22 0 8 -7 15 -16 15 -9 0 -18 9 -21 20 -3 11 -12 20 -20 20 -8 0 -17 9
-20 20 -3 11 -14 20 -23 20 -10 0 -22 9 -25 20 -4 13 -15 20 -32 20 -16 0 -27
7 -30 20 -3 11 -14 20 -25 20 -11 0 -22 9 -25 20 -3 11 -12 20 -20 20 -8 0
-17 9 -20 20 -3 11 -12 20 -20 20 -8 0 -17 9 -20 20 -3 11 -14 20 -24 20 -12
0 -19 7 -19 20 0 14 -7 20 -21 20 -12 0 -23 8 -26 20 -3 11 -12 20 -20 20 -8
0 -17 9 -20 20 -7 28 -78 29 -93 1z m247 -195 c104 -90 221 -198 260 -239 249
-268 228 -606 -56 -869 -121 -112 -236 -158 -395 -158 -138 0 -265 53 -409
173 -64 53 -360 308 -387 333 -12 12 -7 22 41 72 31 31 84 91 119 132 35 41
91 107 126 145 112 126 347 400 419 488 39 47 75 86 82 86 6 1 96 -73 200
-163z"/>
<path d="M14459 15073 c-74 -86 -161 -186 -194 -221 l-60 -64 40 -35 c152
-130 229 -173 310 -173 75 0 137 33 206 108 68 73 91 120 97 194 5 66 -25 140
-80 198 -62 66 -159 150 -172 150 -7 0 -73 -71 -147 -157z m178 87 c3 -11 11
-20 18 -20 8 0 16 -9 20 -19 3 -10 17 -22 30 -25 14 -4 25 -13 25 -20 0 -8 7
-16 15 -20 8 -3 15 -12 15 -20 0 -7 7 -16 15 -20 8 -3 15 -12 15 -21 0 -8 7
-15 15 -15 12 0 15 -16 15 -80 0 -62 -3 -80 -14 -80 -16 0 -26 -21 -26 -56 0
-15 -6 -24 -15 -24 -8 0 -15 -7 -15 -16 0 -9 -9 -18 -19 -21 -11 -3 -21 -13
-24 -24 -3 -11 -14 -19 -25 -19 -11 0 -22 -9 -25 -20 -5 -18 -14 -20 -102 -20
-88 0 -97 2 -102 20 -3 11 -14 20 -25 20 -11 0 -22 9 -25 20 -4 13 -14 20 -30
20 -16 0 -27 7 -30 20 -3 11 -14 20 -25 20 -11 0 -22 9 -25 20 -3 11 -12 20
-19 20 -8 0 -14 5 -14 10 0 6 3 10 8 10 17 0 72 60 72 79 0 12 7 21 15 21 8 0
15 7 15 16 0 9 9 18 19 21 11 3 21 13 24 24 3 10 12 19 20 19 8 0 17 9 20 20
3 11 12 20 21 20 9 0 16 7 16 16 0 9 8 18 18 21 10 2 26 22 35 44 10 22 22 37
27 34 6 -3 10 5 10 19 0 21 5 26 26 26 17 0 28 -6 31 -20z"/>
<path d="M5195 15290 c10 -16 -40 -30 -104 -30 -50 0 -59 -3 -64 -20 -4 -15
-14 -20 -41 -20 -29 0 -36 -4 -36 -20 0 -13 -7 -20 -19 -20 -10 0 -21 -9 -24
-20 -3 -12 -14 -20 -26 -20 -14 0 -21 -6 -21 -20 0 -13 -7 -20 -20 -20 -11 0
-19 -3 -19 -7 3 -21 -2 -33 -15 -33 -7 0 -16 -9 -19 -20 -3 -12 -14 -20 -26
-20 -12 0 -20 -3 -20 -7 4 -22 -3 -33 -20 -33 -10 0 -21 -9 -24 -20 -3 -11
-12 -20 -20 -20 -8 0 -17 -9 -20 -20 -3 -12 -14 -20 -26 -20 -12 0 -21 -6 -21
-14 0 -8 -9 -18 -20 -21 -11 -3 -20 -13 -20 -21 0 -8 -9 -18 -19 -22 -11 -4
-19 -11 -19 -17 1 -5 -15 -19 -35 -29 -38 -20 -49 -49 -23 -59 8 -3 16 -16 18
-29 2 -15 11 -24 27 -26 13 -2 26 -12 28 -23 3 -10 12 -19 19 -19 8 0 14 -9
14 -20 0 -13 7 -20 20 -20 13 0 20 -7 20 -20 0 -13 7 -20 20 -20 18 0 25 -10
21 -32 0 -5 8 -8 19 -8 13 0 20 -7 20 -20 0 -12 7 -20 16 -20 9 0 18 -9 21
-20 3 -11 12 -20 20 -20 8 0 17 -9 20 -20 3 -11 12 -20 19 -20 8 0 19 -11 24
-25 5 -14 14 -25 20 -25 5 0 10 -6 10 -14 0 -7 9 -16 20 -19 11 -3 20 -12 20
-20 0 -8 9 -17 20 -20 11 -3 20 -12 20 -20 0 -9 9 -19 20 -22 11 -3 20 -12 20
-20 0 -7 7 -15 15 -19 8 -3 15 -11 15 -18 0 -7 10 -18 23 -23 12 -6 21 -14 20
-20 -1 -5 7 -13 18 -17 10 -4 19 -14 19 -23 0 -8 7 -15 15 -15 9 0 19 -8 22
-17 4 -9 22 -31 40 -47 18 -17 33 -37 33 -43 0 -7 7 -13 16 -13 9 0 18 -9 21
-20 3 -11 13 -20 23 -20 9 0 25 -9 35 -20 18 -20 17 -20 -17 -20 -34 0 -65 20
-51 33 3 4 -24 7 -61 7 -68 0 -111 13 -101 31 4 5 -26 9 -73 9 -54 0 -83 4
-91 13 -6 8 -8 17 -4 20 3 4 -34 7 -84 7 -64 0 -94 4 -102 13 -6 8 -8 17 -4
20 3 4 -27 7 -68 7 -90 0 -122 8 -115 26 4 11 -10 14 -68 14 -49 0 -77 4 -85
13 -6 8 -8 17 -4 20 3 4 -32 7 -79 7 -59 0 -89 4 -97 13 -6 8 -8 17 -4 20 3 4
-37 7 -89 7 -87 0 -96 -2 -101 -20 -3 -11 -12 -20 -20 -20 -8 0 -22 -18 -31
-40 -9 -22 -20 -40 -26 -40 -5 0 -10 -9 -10 -20 0 -11 -7 -20 -15 -20 -8 0
-15 -7 -15 -15 0 -9 -11 -20 -25 -25 -23 -9 -25 -14 -25 -80 0 -66 2 -71 25
-80 14 -5 25 -16 25 -25 0 -8 7 -15 15 -15 9 0 15 -9 15 -22 0 -13 11 -36 25
-52 14 -16 25 -33 25 -38 0 -4 7 -8 15 -8 9 0 15 -9 15 -24 0 -34 10 -56 25
-56 8 0 17 -9 20 -20 3 -11 13 -20 21 -20 9 0 14 -11 14 -36 0 -27 5 -37 20
-41 10 -3 22 -13 25 -23 3 -10 12 -21 20 -24 8 -3 15 -14 15 -25 0 -30 11 -51
26 -51 8 0 14 -8 14 -19 0 -10 9 -21 20 -24 15 -4 20 -14 20 -37 0 -23 5 -33
20 -37 14 -4 20 -14 20 -35 0 -17 4 -27 10 -23 6 4 17 -10 25 -29 9 -20 22
-36 30 -36 11 0 15 -11 15 -36 0 -27 5 -37 20 -41 11 -3 20 -12 20 -20 0 -8 9
-17 20 -20 15 -4 20 -14 20 -40 0 -26 5 -36 20 -40 10 -3 22 -14 25 -24 4 -10
13 -19 21 -19 8 0 14 -9 14 -20 0 -16 -7 -20 -31 -20 -22 0 -32 5 -36 20 -4
15 -14 20 -42 20 -42 0 -67 13 -57 29 5 7 -8 11 -39 11 -38 0 -48 4 -52 20 -4
16 -14 20 -43 20 -36 0 -67 20 -53 33 3 4 -15 7 -41 7 -39 0 -49 4 -53 20 -4
16 -14 20 -50 20 -36 0 -46 4 -50 20 -4 16 -14 20 -50 20 -36 0 -46 4 -50 20
-4 16 -14 20 -45 20 -31 0 -41 4 -45 20 -4 16 -14 20 -43 20 -36 0 -67 20 -53
33 3 4 -10 7 -30 7 -45 0 -67 8 -67 26 0 10 -13 14 -41 14 -32 0 -42 4 -46 20
-4 16 -14 20 -46 20 -26 0 -44 6 -53 18 -10 14 -15 15 -26 4 -10 -10 -10 -16
1 -34 11 -18 11 -22 -3 -30 -9 -5 -16 -22 -16 -38 0 -39 -18 -83 -30 -75 -6 4
-10 -11 -10 -38 0 -36 -4 -46 -20 -50 -14 -4 -20 -14 -20 -34 0 -16 9 -36 20
-46 11 -9 20 -29 20 -43 0 -17 6 -28 20 -31 14 -4 20 -14 20 -35 0 -17 4 -27
10 -23 6 4 17 -10 25 -29 9 -20 22 -36 30 -36 10 0 15 -10 15 -30 0 -19 7 -34
20 -42 11 -7 20 -18 20 -25 0 -7 9 -17 20 -23 13 -7 20 -21 20 -41 0 -22 5
-32 20 -36 14 -4 20 -14 20 -33 0 -22 10 -36 42 -59 l42 -31 -53 0 c-36 0 -50
-3 -45 -11 12 -20 -19 -29 -105 -29 -46 0 -81 -3 -78 -7 4 -3 2 -12 -4 -20 -8
-9 -37 -13 -92 -13 -44 0 -77 -3 -74 -7 4 -3 2 -12 -4 -20 -8 -9 -37 -13 -96
-13 -76 0 -85 -2 -90 -20 -3 -10 -14 -22 -24 -25 -14 -5 -19 -16 -19 -45 0
-48 -8 -70 -26 -70 -10 0 -14 -12 -14 -39 0 -31 -4 -40 -21 -44 -18 -5 -20
-12 -17 -59 3 -48 5 -53 28 -56 52 -6 70 -13 70 -27 0 -11 11 -15 41 -15 32 0
42 -4 46 -20 4 -17 14 -20 55 -20 41 0 51 -3 55 -20 4 -16 14 -20 45 -20 31 0
41 -4 45 -20 4 -16 14 -20 50 -20 36 0 46 -4 50 -20 4 -16 14 -20 43 -20 36 0
67 -20 53 -33 -3 -4 15 -7 41 -7 39 0 49 -4 53 -20 4 -16 14 -20 43 -20 36 0
67 -20 53 -33 -3 -4 10 -7 30 -7 45 0 67 -8 67 -26 0 -10 13 -14 46 -14 37 0
47 -4 51 -20 4 -16 14 -20 45 -20 31 0 41 -4 45 -20 5 -18 14 -20 74 -20 61 0
69 2 69 19 0 10 9 21 20 24 15 4 20 14 20 39 1 34 22 73 33 61 4 -3 7 17 7 45
0 46 2 52 20 52 19 0 21 5 18 58 l-3 57 -35 3 c-58 4 -80 12 -80 27 0 11 -12
15 -45 15 -42 0 -50 6 -46 33 0 4 -14 7 -33 7 -44 0 -66 9 -66 26 0 10 -12 14
-39 14 -37 0 -68 19 -54 33 3 4 -15 7 -41 7 -49 0 -86 13 -86 30 0 6 41 10 96
10 67 0 93 3 88 11 -12 20 19 29 104 29 49 0 81 4 77 9 -10 16 18 26 90 31
l70 5 3 53 c3 47 1 54 -17 59 -12 3 -21 14 -21 24 0 11 -6 19 -14 19 -15 0
-26 21 -26 52 0 11 -8 22 -20 25 -13 3 -20 14 -20 28 0 34 -10 55 -26 55 -8 0
-14 9 -14 20 0 11 -6 20 -14 20 -15 0 -26 21 -26 51 0 12 -10 23 -25 29 -36
14 -32 40 6 40 22 0 32 -5 36 -20 4 -16 14 -20 43 -20 36 0 67 -20 53 -33 -3
-4 17 -7 45 -7 49 0 57 -5 53 -32 0 -5 16 -8 38 -8 37 0 68 -19 54 -33 -3 -4
13 -7 36 -7 46 0 85 -16 76 -31 -4 -5 5 -9 19 -9 27 0 46 24 46 58 0 11 9 22
20 25 13 3 20 14 20 30 0 47 12 88 25 83 9 -3 15 10 20 40 5 34 10 44 21 40
20 -8 18 43 -3 66 -15 17 -15 18 15 18 22 0 32 6 37 20 3 11 13 20 20 20 8 0
17 15 21 36 4 24 13 38 25 41 11 3 19 14 19 24 0 11 7 19 15 19 8 0 15 4 15
10 0 5 11 20 24 33 44 44 45 197 1 197 -7 0 -15 14 -17 30 -3 22 2 38 19 56
13 14 23 36 23 50 0 14 6 24 14 24 8 0 18 9 21 20 3 11 12 20 20 20 15 0 25
22 25 56 0 15 6 24 15 24 8 0 15 7 15 16 0 9 8 18 18 21 10 2 25 22 35 44 9
21 21 39 26 39 13 0 32 -26 24 -33 -3 -4 31 -7 76 -7 90 0 111 10 111 53 0 16
7 26 20 30 15 4 20 14 20 41 0 24 5 36 14 36 7 0 16 9 19 20 3 11 12 20 21 20
9 0 16 7 16 15 0 9 11 20 25 25 20 8 25 16 25 45 0 33 2 35 35 35 24 0 35 5
35 15 0 7 6 18 13 22 8 4 16 16 20 26 3 9 16 17 27 17 13 0 20 7 20 20 0 13 7
20 19 20 10 0 21 9 24 20 3 11 12 20 20 20 8 0 17 9 20 20 3 12 14 20 26 20
19 0 21 6 21 60 0 53 -2 60 -20 60 -18 0 -25 10 -21 33 0 4 -8 7 -20 7 -12 0
-23 8 -26 19 -3 11 -13 21 -24 24 -10 3 -19 12 -19 20 0 8 -9 17 -20 20 -11 3
-20 12 -20 20 0 8 -9 17 -20 20 -11 3 -20 12 -20 21 0 9 -7 16 -16 16 -9 0
-14 7 -12 18 3 15 17 17 102 20 95 3 134 -7 120 -29 -3 -5 38 -9 91 -9 88 0
97 -2 102 -20 4 -16 14 -20 49 -20 37 0 44 3 44 20 0 13 7 20 20 20 12 0 20 7
20 16 0 9 9 18 19 21 11 3 21 13 24 24 3 10 12 19 20 19 8 0 17 9 20 20 3 11
12 20 20 20 8 0 17 9 20 20 3 11 12 20 20 20 8 0 17 9 20 20 3 13 14 20 30 20
17 0 27 7 31 23 5 18 8 20 16 7 8 -11 10 -2 8 35 l-3 50 -65 3 c-85 3 -110 9
-110 27 0 12 -16 15 -79 15 -88 0 -111 5 -111 26 0 11 -18 14 -77 14 l-78 0 3
129 c3 123 2 131 -17 143 -13 8 -21 23 -21 41 0 16 -4 26 -10 22 -5 -3 -10 0
-10 8 0 8 -7 17 -15 21 -8 3 -15 12 -15 21 0 8 -7 15 -16 15 -9 0 -18 9 -21
20 -3 11 -14 20 -25 20 -11 0 -22 9 -25 20 -4 15 -14 20 -39 20 -31 0 -39 8
-35 33 0 4 -26 7 -58 7 -65 0 -116 14 -106 30 4 6 -7 10 -25 10 -18 0 -29 -4
-25 -10z m139 -65 c198 -52 329 -267 283 -466 l-9 -37 69 -15 c37 -9 155 -33
260 -54 106 -21 193 -41 193 -44 0 -3 -61 -65 -135 -137 l-134 -130 -48 14
c-57 17 -253 61 -338 76 l-60 10 -37 -35 c-21 -20 -38 -42 -38 -49 0 -7 57
-70 127 -140 l128 -128 -115 -115 c-63 -63 -118 -115 -122 -115 -7 0 -186 182
-488 495 -74 77 -183 190 -242 251 -59 61 -108 115 -110 120 -4 13 411 417
462 449 98 62 234 81 354 50z m-1048 -1171 c232 -53 587 -134 864 -195 177
-39 166 -33 138 -70 -39 -53 -162 -226 -173 -243 -9 -15 -16 -15 -80 4 -38 11
-77 20 -85 20 -13 0 -200 -260 -255 -354 l-19 -34 29 -42 c62 -88 62 -87 45
-115 -18 -29 -148 -218 -171 -247 -18 -23 17 -73 -476 695 l-255 397 34 43
c19 23 58 77 87 120 29 42 59 77 66 77 7 0 120 -25 251 -56z m-759 -918 c59
-23 191 -78 293 -121 102 -42 255 -106 340 -142 336 -140 370 -156 370 -170 0
-8 -9 -30 -19 -51 -10 -20 -33 -75 -51 -122 -18 -47 -35 -88 -39 -92 -6 -7
-161 55 -438 174 -79 34 -145 59 -147 57 -3 -2 63 -115 146 -249 82 -135 152
-250 155 -256 2 -6 -42 -21 -114 -37 -194 -43 -467 -108 -470 -111 -4 -3 -6
-2 277 -120 305 -126 300 -124 300 -149 0 -13 -4 -27 -9 -32 -5 -6 -26 -55
-46 -110 -48 -128 -51 -132 -101 -107 -22 11 -165 72 -319 136 -415 174 -675
282 -717 300 -43 17 -45 23 -19 74 10 20 31 69 46 107 35 88 38 91 83 100 81
14 605 135 610 140 2 2 -33 64 -78 137 -46 73 -125 201 -176 285 -52 83 -94
156 -94 161 0 5 18 50 40 100 22 49 40 98 40 109 0 20 8 33 21 33 4 0 56 -20
116 -44z"/>
<path d="M5139 14912 c-24 -15 -179 -159 -179 -164 1 -11 178 -188 188 -188
18 0 149 139 168 178 28 60 -10 142 -80 176 -43 20 -65 20 -97 -2z m71 -37 c0
-8 12 -15 28 -17 19 -2 27 -8 26 -20 -1 -10 4 -18 11 -18 15 0 25 -22 25 -56
0 -14 -6 -24 -14 -24 -7 0 -16 -9 -19 -20 -3 -11 -12 -20 -20 -20 -8 0 -17 -9
-20 -20 -3 -11 -12 -20 -21 -20 -9 0 -16 -7 -16 -16 0 -9 -9 -18 -20 -21 -11
-3 -21 -13 -21 -22 -1 -13 -2 -13 -6 2 -3 10 -18 31 -34 48 -16 16 -29 34 -29
39 0 6 -6 10 -12 10 -22 0 -36 14 -43 42 -6 23 -3 28 19 34 14 3 26 12 26 19
0 8 9 17 20 20 11 3 20 13 20 21 0 8 13 17 30 21 17 3 28 8 25 11 -2 3 0 11 6
18 12 15 39 7 39 -11z"/>
<path d="M4391 13588 c55 -84 105 -157 111 -163 7 -7 16 -2 28 15 109 148 140
192 143 201 2 9 -328 97 -370 99 -7 0 33 -69 88 -152z m9 82 c0 -6 32 -10 71
-10 62 0 71 -2 76 -20 4 -15 14 -20 41 -20 36 0 36 0 14 -16 -12 -8 -22 -24
-22 -36 0 -11 -8 -22 -20 -25 -11 -3 -20 -14 -20 -24 0 -11 -4 -19 -10 -19 -5
0 -10 -7 -10 -15 0 -8 -4 -15 -10 -15 -5 0 -10 14 -10 31 0 22 -5 32 -20 36
-11 3 -20 14 -20 24 0 11 -7 19 -15 19 -8 0 -16 5 -16 10 -1 6 -2 14 -3 20 0
5 -13 22 -27 37 -39 43 -46 57 -20 44 11 -7 21 -16 21 -21z"/>
<path d="M15550 14720 c0 -13 -7 -20 -19 -20 -10 0 -21 -9 -24 -20 -3 -11 -12
-20 -20 -20 -8 0 -17 -9 -20 -20 -3 -11 -14 -20 -25 -20 -11 0 -22 -9 -25 -20
-3 -12 -14 -20 -26 -20 -12 0 -20 -5 -18 -12 1 -7 -8 -17 -20 -22 -12 -6 -24
-18 -26 -28 -3 -10 -14 -18 -25 -18 -11 0 -22 -9 -25 -20 -3 -12 -14 -20 -26
-20 -14 0 -21 -6 -21 -20 0 -13 -7 -20 -19 -20 -10 0 -21 -9 -24 -20 -3 -11
-12 -20 -20 -20 -8 0 -17 -9 -20 -20 -3 -12 -14 -20 -26 -20 -14 0 -21 -6 -21
-20 0 -13 -7 -20 -19 -20 -10 0 -21 -9 -24 -20 -3 -11 -14 -20 -25 -20 -11 0
-22 -9 -25 -20 -3 -14 -14 -20 -31 -20 -19 0 -26 -5 -26 -20 0 -13 -7 -20 -20
-20 -12 0 -20 -7 -20 -16 0 -9 -9 -18 -20 -21 -11 -3 -20 -12 -20 -20 0 -8 -9
-17 -19 -20 -11 -3 -21 -13 -24 -24 -3 -11 -14 -19 -25 -19 -11 0 -22 -9 -25
-20 -3 -11 -14 -20 -25 -20 -11 0 -22 -8 -25 -19 -3 -12 -15 -21 -33 -23 -28
-3 -29 -5 -32 -60 -3 -54 -1 -58 18 -58 13 0 24 -8 27 -19 3 -11 13 -21 24
-24 10 -3 19 -12 19 -20 0 -8 10 -17 21 -20 14 -4 20 -11 16 -20 -3 -9 2 -17
14 -20 11 -3 19 -14 19 -26 0 -12 5 -21 10 -21 6 0 10 -6 10 -13 0 -7 10 -17
23 -22 12 -6 21 -16 20 -23 -2 -7 4 -12 12 -12 8 0 15 6 15 14 0 15 21 26 51
26 10 0 18 3 18 8 -4 23 4 32 28 32 14 0 23 3 20 7 -10 10 13 33 33 33 10 0
20 9 23 20 3 12 14 20 26 20 14 0 21 6 21 20 0 15 7 20 25 20 14 0 24 3 24 8
-3 20 2 32 15 32 7 0 16 9 19 20 3 11 14 20 25 20 11 0 22 9 25 20 3 12 14 20
26 20 12 0 21 6 21 14 0 8 9 18 20 21 11 3 20 13 20 21 0 8 13 17 30 21 21 4
30 11 30 24 0 12 7 19 20 19 13 0 20 7 20 20 0 13 7 20 19 20 10 0 21 9 24 20
3 11 12 20 20 20 8 0 17 9 20 20 3 12 14 20 26 20 14 0 21 6 21 20 0 13 7 20
19 20 10 0 21 9 24 20 3 14 14 20 31 20 17 0 26 5 26 16 0 9 9 18 20 21 10 3
22 14 25 24 4 10 15 19 25 19 9 0 20 9 23 20 3 11 14 20 25 20 12 0 22 9 25
21 4 15 11 20 21 16 13 -5 16 3 16 54 0 54 -2 60 -25 69 -14 5 -25 16 -25 25
0 8 -7 15 -16 15 -9 0 -18 9 -21 19 -3 11 -13 21 -24 24 -10 3 -19 12 -19 21
0 9 -7 16 -16 16 -9 0 -18 9 -21 20 -3 11 -12 20 -19 20 -8 0 -14 9 -14 20 0
18 -7 20 -55 20 -48 0 -55 -2 -55 -20z m170 -129 c56 -62 100 -119 98 -125 -2
-7 -70 -70 -153 -141 -82 -71 -222 -193 -309 -270 -88 -77 -225 -196 -304
-264 -139 -120 -144 -123 -161 -105 -10 11 -60 68 -111 128 l-94 109 29 21
c17 11 86 71 156 131 69 61 204 178 299 260 96 83 230 201 299 262 69 62 131
112 138 110 7 -1 57 -53 113 -116z"/>
<path d="M15720 14046 c0 -19 -22 -26 -80 -26 -39 0 -49 -4 -53 -20 -4 -15
-14 -20 -40 -20 -26 0 -36 -5 -40 -20 -3 -13 -14 -20 -30 -20 -16 0 -26 -7
-30 -20 -3 -12 -14 -20 -26 -20 -12 0 -21 -6 -21 -15 0 -9 -7 -18 -15 -21 -8
-4 -15 -12 -15 -20 0 -8 -5 -14 -10 -14 -6 0 -15 -11 -20 -25 -5 -14 -14 -25
-19 -25 -5 0 -12 -9 -16 -19 -3 -10 -15 -21 -25 -24 -15 -4 -20 -14 -20 -39 0
-21 -6 -37 -18 -45 -14 -8 -20 -28 -25 -80 -6 -76 -15 -106 -28 -97 -5 3 -9
-40 -8 -98 0 -67 3 -96 9 -83 8 19 9 19 9 -2 1 -12 6 -25 11 -28 6 -3 10 -35
10 -70 0 -53 3 -63 15 -59 11 4 16 -5 21 -36 4 -23 13 -44 20 -47 7 -2 16 -18
19 -35 4 -18 15 -32 26 -35 12 -3 19 -14 19 -29 0 -13 6 -24 13 -24 7 0 19
-15 27 -34 7 -19 21 -37 32 -39 10 -3 18 -12 18 -21 0 -10 8 -16 21 -16 12 0
23 -8 26 -20 4 -14 14 -20 34 -20 26 0 34 -9 30 -32 0 -5 8 -8 18 -8 30 0 51
-11 51 -26 0 -10 12 -14 39 -14 37 0 68 -19 54 -33 -3 -4 91 -7 210 -7 179 0
217 2 217 14 0 16 21 26 55 26 14 0 25 7 28 20 4 14 14 20 35 20 21 0 31 6 35
20 3 12 14 20 26 20 13 0 21 6 21 16 0 9 9 18 20 21 11 3 20 12 20 20 0 8 9
17 20 20 11 3 20 12 20 19 0 8 8 18 18 21 23 9 32 23 32 51 0 15 7 26 20 29
16 4 20 14 20 43 0 29 4 39 20 43 17 4 20 14 20 69 0 107 19 175 33 121 3 -10
5 20 5 67 0 56 -2 78 -8 65 -8 -19 -9 -19 -9 2 -1 12 -5 25 -11 28 -5 3 -10
40 -10 82 0 66 -2 75 -20 80 -15 4 -20 14 -20 40 0 26 -5 36 -20 40 -15 4 -20
14 -20 40 0 26 -5 36 -20 40 -10 3 -22 13 -25 23 -3 10 -15 20 -25 23 -11 3
-20 12 -20 21 0 9 -7 16 -16 16 -9 0 -18 9 -21 20 -3 11 -12 20 -20 20 -8 0
-17 9 -20 20 -3 11 -14 20 -24 20 -12 0 -19 7 -19 20 0 14 -7 20 -24 20 -25 0
-51 22 -39 33 3 4 -12 7 -34 7 -38 0 -71 19 -56 33 3 4 -21 7 -55 7 -69 0 -92
6 -92 26 0 11 -23 14 -115 14 -92 0 -115 -3 -115 -14z m326 -70 c227 -73 408
-278 463 -526 29 -126 3 -307 -61 -438 -39 -79 -154 -200 -238 -249 -113 -66
-277 -88 -434 -58 -243 46 -462 271 -527 541 -17 70 -20 106 -15 169 22 289
184 498 448 576 92 27 255 21 364 -15z"/>
<path d="M15743 13656 c-164 -78 -242 -274 -170 -429 61 -134 153 -197 297
-205 72 -4 84 -2 142 25 107 51 167 130 190 252 19 104 -11 203 -85 279 -68
70 -126 95 -232 99 -80 4 -96 1 -142 -21z m155 -2 c14 -4 21 -12 18 -20 -4
-11 8 -14 54 -14 57 0 66 -5 61 -32 0 -5 8 -8 20 -8 12 0 23 -8 26 -19 3 -11
11 -22 19 -25 8 -3 14 -12 14 -21 0 -8 7 -15 15 -15 11 0 15 -11 15 -36 0 -27
5 -37 20 -41 17 -5 20 -14 20 -62 0 -45 -4 -59 -20 -69 -16 -9 -20 -23 -20
-62 0 -38 -4 -50 -15 -50 -8 0 -15 -7 -15 -16 0 -9 -9 -18 -20 -21 -11 -3 -20
-14 -20 -24 0 -15 -7 -19 -34 -19 -25 0 -35 -5 -39 -20 -5 -18 -14 -20 -117
-20 -103 0 -112 2 -117 20 -4 15 -14 20 -39 20 -27 0 -34 4 -34 20 0 12 -7 20
-16 20 -9 0 -18 9 -21 20 -3 11 -12 20 -19 20 -9 0 -14 12 -14 33 0 20 -8 39
-20 50 -16 14 -20 29 -20 86 0 61 3 70 20 76 15 5 20 15 20 41 0 24 5 34 15
34 8 0 15 7 15 15 0 7 6 18 13 22 8 4 16 16 20 26 3 9 16 17 27 17 13 0 20 7
20 20 0 17 7 20 51 20 31 0 48 4 44 10 -3 6 4 14 17 19 29 12 28 12 56 5z"/>
<path d="M7317 13963 c-13 -12 -7 -44 8 -49 13 -5 15 -407 15 -3535 0 -2927 2
-3528 13 -3523 9 3 18 -9 27 -36 7 -22 20 -40 28 -40 7 0 16 -9 19 -19 3 -11
13 -21 24 -24 10 -3 19 -12 19 -21 0 -9 7 -16 15 -16 10 0 15 -11 15 -35 0
-29 5 -37 25 -45 14 -5 25 -16 25 -25 0 -8 7 -15 15 -15 8 0 15 -9 15 -20 0
-11 5 -20 10 -20 6 0 18 -18 27 -39 10 -22 25 -42 35 -44 10 -3 18 -12 18 -20
0 -8 9 -17 20 -20 11 -3 20 -12 20 -20 0 -8 7 -17 15 -21 8 -3 15 -16 15 -28
0 -28 9 -42 33 -51 9 -3 17 -13 17 -22 0 -8 7 -15 15 -15 8 0 15 -8 15 -19 0
-10 8 -21 19 -24 11 -3 21 -17 25 -40 4 -23 13 -37 26 -40 11 -3 20 -12 20
-20 0 -8 10 -17 21 -20 14 -4 20 -11 16 -20 -3 -9 2 -17 14 -20 12 -3 19 -14
19 -29 0 -28 9 -42 33 -51 9 -3 17 -13 17 -21 0 -7 10 -16 21 -19 15 -4 20
-11 16 -21 -4 -9 -2 -16 3 -16 6 0 18 -18 27 -39 10 -22 25 -42 35 -44 10 -3
18 -12 18 -20 0 -8 10 -17 21 -20 15 -4 20 -11 16 -21 -4 -10 -1 -16 8 -16 8
0 19 -18 26 -40 7 -22 18 -40 26 -40 7 0 13 -9 13 -20 0 -11 7 -20 15 -20 9 0
20 -11 24 -24 13 -33 32 -37 79 -16 47 21 56 52 22 70 -20 11 -20 21 -20 3730
l0 3720 220 0 220 0 0 -3135 0 -3135 25 -10 c14 -5 25 -16 25 -24 0 -7 10 -16
21 -19 14 -4 20 -11 16 -20 -3 -9 2 -17 12 -20 11 -3 21 -18 25 -40 4 -23 13
-37 26 -40 11 -3 20 -12 20 -21 0 -9 7 -16 15 -16 14 0 19 -10 13 -26 -2 -4 7
-10 18 -15 14 -5 24 -20 28 -42 4 -23 13 -37 26 -40 11 -3 20 -12 20 -20 0 -8
10 -17 21 -20 14 -4 20 -11 16 -20 -3 -9 2 -17 12 -20 12 -3 21 -18 25 -41 4
-21 13 -36 21 -36 7 0 17 -9 20 -20 3 -11 13 -20 21 -20 8 0 14 -8 14 -19 0
-10 8 -21 19 -24 11 -3 21 -17 25 -40 4 -23 13 -37 26 -40 11 -3 20 -12 20
-20 0 -8 10 -17 21 -20 14 -4 20 -11 16 -20 -3 -9 2 -17 12 -20 11 -3 21 -18
25 -40 4 -23 13 -37 26 -40 11 -3 20 -12 20 -21 0 -9 7 -16 15 -16 8 0 15 -4
15 -10 0 -22 2 -25 19 -32 11 -4 21 -21 25 -41 4 -23 13 -37 26 -40 11 -3 20
-12 20 -20 0 -8 9 -17 20 -20 11 -3 20 -12 20 -21 0 -9 7 -16 15 -16 9 0 15
-9 15 -25 0 -14 5 -25 10 -25 6 0 18 -16 27 -35 9 -19 23 -35 30 -35 8 0 13
-13 13 -34 0 -39 11 -46 76 -46 l44 0 0 3758 0 3757 207 3 c208 2 247 -3 210
-30 -16 -12 -17 -126 -15 -1788 l3 -1775 53 -3 c43 -3 52 0 52 13 0 9 9 19 20
22 13 3 22 17 26 40 4 20 14 37 25 41 17 7 19 10 19 32 0 6 7 10 15 10 8 0 15
7 15 16 0 9 9 18 20 21 11 3 20 10 20 17 0 6 12 22 25 35 14 13 25 34 25 47 0
15 6 24 15 24 8 0 15 7 15 16 0 9 9 18 20 21 11 3 20 11 20 19 0 7 8 18 19 23
10 6 26 26 35 46 9 19 21 35 26 35 6 0 10 9 10 20 0 11 7 20 15 20 8 0 15 7
15 16 0 9 8 18 18 21 11 2 25 20 32 39 8 19 18 34 22 34 5 0 13 11 18 25 5 14
14 25 19 25 5 0 13 9 16 20 3 11 12 20 20 20 7 0 15 9 18 20 3 11 12 20 20 20
9 0 19 15 24 38 6 25 14 37 26 36 12 -1 17 6 17 22 0 14 6 24 14 24 16 0 26
21 26 56 0 14 6 24 14 24 8 0 18 9 21 20 3 11 13 20 20 20 8 0 19 16 26 35 8
22 18 34 26 31 9 -4 13 4 13 24 0 19 5 30 14 30 8 0 17 9 21 19 3 11 15 23 26
26 15 5 19 14 17 38 -3 28 0 32 23 35 17 2 29 11 32 23 3 12 14 19 30 19 16 0
26 7 30 20 4 15 14 20 41 20 20 0 35 3 35 8 -4 23 4 32 30 32 20 0 30 6 34 20
3 13 14 20 30 20 16 0 26 7 30 20 4 15 14 20 41 20 29 0 36 4 36 20 0 15 7 20
29 20 20 0 30 6 34 20 3 11 10 20 16 20 8 0 11 -482 11 -1719 0 -1710 0 -1719
-20 -1724 -17 -4 -20 -14 -20 -59 -1 -50 -19 -96 -33 -81 -4 3 -7 -12 -7 -34
0 -62 -11 -105 -25 -99 -9 3 -14 -13 -17 -55 -3 -37 -10 -64 -20 -72 -9 -6
-18 -34 -22 -62 -3 -28 -13 -53 -21 -58 -10 -5 -15 -25 -15 -62 0 -30 -4 -55
-8 -55 -12 0 -32 93 -32 147 0 36 -4 46 -20 50 -17 4 -20 14 -20 57 0 39 -5
56 -20 69 -15 12 -20 29 -20 63 0 37 -4 47 -20 51 -17 5 -20 14 -20 60 0 46
-3 56 -20 60 -20 5 -20 14 -20 1372 0 1050 -3 1370 -12 1379 -7 7 -29 12 -51
12 -36 0 -40 -3 -54 -40 -9 -22 -22 -40 -29 -40 -8 0 -11 -6 -7 -16 4 -10 -1
-17 -16 -21 -11 -3 -21 -10 -21 -17 0 -6 -12 -22 -25 -35 -14 -13 -25 -34 -25
-47 0 -14 -6 -24 -14 -24 -7 0 -16 -9 -19 -20 -3 -11 -12 -20 -21 -20 -9 0
-16 -6 -16 -14 0 -7 -11 -25 -25 -40 -14 -15 -25 -36 -25 -47 0 -10 -6 -19
-14 -19 -8 0 -18 -9 -21 -20 -3 -11 -13 -20 -21 -20 -8 0 -14 -6 -14 -14 0 -7
-11 -25 -25 -40 -14 -15 -25 -36 -25 -47 0 -10 -7 -19 -15 -19 -8 0 -15 -7
-15 -16 0 -9 -8 -18 -18 -21 -11 -2 -25 -20 -32 -39 -8 -19 -20 -34 -27 -34
-7 0 -13 -11 -13 -25 0 -16 -6 -25 -15 -25 -8 0 -15 -7 -15 -16 0 -9 -8 -18
-18 -21 -10 -2 -25 -22 -35 -44 -9 -21 -21 -39 -27 -39 -5 0 -10 -9 -10 -20 0
-11 -7 -20 -15 -20 -8 0 -15 -7 -15 -16 0 -9 -9 -18 -19 -21 -11 -3 -22 -15
-26 -26 -4 -12 -8 -25 -10 -29 -1 -5 -3 -12 -4 -18 0 -5 -8 -10 -16 -10 -8 0
-14 -3 -14 -7 3 -21 -2 -33 -16 -33 -8 0 -15 -4 -15 -8 0 -5 -11 -22 -25 -38
-14 -16 -25 -39 -25 -51 0 -14 -6 -23 -15 -23 -8 0 -15 -7 -15 -16 0 -9 -8
-18 -19 -21 -10 -2 -25 -20 -34 -39 -9 -19 -21 -34 -27 -34 -5 0 -10 -11 -10
-24 0 -16 -7 -27 -20 -31 -20 -6 -20 -15 -20 -510 0 -494 0 -505 20 -515 16
-9 20 -21 20 -65 0 -45 3 -55 20 -60 17 -5 20 -15 20 -62 0 -46 3 -56 20 -60
17 -5 20 -14 20 -60 0 -46 3 -56 20 -60 17 -5 20 -14 20 -60 0 -46 3 -56 20
-60 17 -5 20 -14 20 -60 0 -46 3 -56 20 -60 17 -5 20 -14 20 -60 0 -46 3 -56
20 -60 17 -4 20 -14 20 -54 0 -38 4 -52 20 -61 16 -10 20 -24 20 -61 0 -28 4
-46 9 -42 14 8 31 -28 31 -65 0 -23 5 -33 20 -37 13 -3 20 -14 20 -29 0 -13 6
-24 13 -24 7 0 19 -15 27 -34 7 -19 21 -37 32 -39 10 -3 18 -12 18 -20 0 -8 9
-17 20 -20 11 -3 20 -12 20 -21 0 -9 7 -16 15 -16 8 0 15 -9 15 -19 0 -11 11
-32 25 -47 14 -15 25 -32 25 -39 0 -7 9 -15 20 -18 11 -3 20 -12 20 -20 0 -8
10 -17 21 -20 15 -4 20 -11 15 -22 -3 -9 0 -18 7 -21 8 -3 20 -20 27 -39 7
-18 21 -36 32 -38 10 -3 18 -12 18 -20 0 -8 9 -17 20 -20 11 -3 20 -12 20 -21
0 -9 7 -16 15 -16 9 0 15 -9 15 -25 0 -14 6 -25 13 -25 7 0 19 -15 27 -34 7
-19 21 -37 32 -39 10 -3 18 -12 18 -21 0 -9 7 -16 15 -16 8 0 15 -8 15 -19 0
-10 9 -21 20 -24 12 -3 20 -14 20 -25 0 -11 11 -30 25 -43 13 -13 25 -29 25
-35 0 -7 9 -14 20 -17 11 -3 20 -12 20 -21 0 -9 7 -16 15 -16 8 0 15 -8 15
-19 0 -10 8 -21 19 -24 11 -3 21 -17 25 -40 4 -23 13 -37 26 -40 11 -3 20 -12
20 -20 0 -8 9 -17 20 -20 11 -3 20 -12 20 -21 0 -9 7 -16 15 -16 8 0 15 -9 15
-19 0 -11 11 -32 25 -47 14 -15 25 -33 25 -40 0 -8 7 -14 15 -14 9 0 15 -10
15 -26 0 -14 4 -23 8 -20 5 3 19 -6 31 -20 19 -22 28 -25 59 -19 47 8 62 28
62 81 0 33 4 43 20 47 15 4 20 14 20 40 0 26 5 36 20 40 15 4 20 14 20 40 0
26 5 36 20 40 15 4 20 14 20 40 0 26 5 36 20 40 15 4 20 14 20 40 0 26 5 36
20 40 15 4 20 14 20 40 0 26 5 36 20 40 14 4 20 14 20 34 0 46 11 75 26 69 10
-4 14 3 14 22 0 16 8 34 20 42 11 8 20 26 20 40 0 14 9 32 20 40 11 8 20 26
20 41 0 18 6 28 20 32 15 4 20 14 20 39 0 22 7 38 20 48 12 8 20 26 20 42 0
18 6 29 20 33 15 5 20 15 20 45 0 48 8 70 26 70 8 0 14 10 14 24 0 35 10 56
26 56 9 0 14 11 14 28 0 34 14 57 29 48 7 -5 11 2 11 16 0 13 9 30 20 38 15
11 20 26 20 58 0 35 4 45 20 49 11 3 20 13 20 23 0 10 9 20 20 23 15 4 20 14
20 40 0 26 5 36 20 40 15 4 20 14 20 40 0 26 5 36 20 40 15 4 20 14 20 40 0
26 5 36 19 40 13 3 22 17 26 41 4 21 13 36 21 36 8 0 14 8 14 18 0 10 9 24 20
32 11 8 20 26 20 41 0 18 6 28 20 32 15 4 20 14 20 40 0 26 5 36 20 40 20 5
20 14 20 2427 0 2206 1 2425 16 2456 23 47 13 68 -29 60 -17 -4 -38 -7 -44 -8
-20 -2 -15 -19 7 -25 38 -10 14 -33 -35 -33 -14 0 -25 -7 -28 -20 -4 -14 -14
-20 -35 -20 -21 0 -31 -6 -35 -20 -4 -16 -14 -20 -43 -20 -20 0 -34 -3 -31 -7
12 -11 -15 -33 -41 -33 -14 0 -22 -3 -19 -7 13 -12 -15 -33 -44 -33 -22 0 -29
-5 -29 -20 0 -16 -7 -20 -34 -20 -25 0 -35 -5 -39 -20 -4 -14 -14 -20 -35 -20
-21 0 -31 -6 -35 -20 -4 -15 -14 -20 -38 -20 -18 0 -29 -3 -26 -7 12 -12 -15
-33 -43 -33 -19 0 -29 -6 -33 -20 -3 -13 -14 -20 -30 -20 -16 0 -26 -7 -30
-20 -4 -15 -14 -20 -40 -20 -26 0 -36 -5 -40 -20 -3 -13 -14 -20 -30 -20 -16
0 -26 -7 -30 -20 -4 -14 -14 -20 -35 -20 -21 0 -31 -6 -35 -20 -4 -14 -14 -20
-35 -20 -21 0 -31 -6 -35 -20 -3 -13 -14 -20 -30 -20 -16 0 -26 -7 -30 -20 -4
-15 -14 -20 -41 -20 -20 0 -35 -3 -35 -7 4 -26 -4 -33 -38 -33 -20 0 -33 -3
-30 -7 13 -12 -15 -33 -44 -33 -19 0 -29 -5 -29 -15 0 -9 -12 -18 -29 -21 -17
-4 -31 -14 -34 -25 -4 -13 -14 -19 -35 -19 -21 0 -31 -6 -35 -20 -3 -12 -14
-20 -26 -20 -24 0 -28 18 -6 26 13 5 15 93 15 709 0 616 -2 704 -15 709 -8 3
-15 12 -15 21 0 13 26 15 215 13 l216 -3 -2 -495 c-1 -272 -2 -513 -3 -535
l-1 -40 43 -3 c31 -2 42 0 42 11 0 8 9 17 20 20 12 3 20 14 20 26 0 12 6 21
15 21 8 0 17 14 21 36 4 24 13 38 25 41 11 3 19 14 19 24 0 11 7 19 15 19 8 0
15 7 15 15 0 9 8 19 18 22 23 9 32 23 32 51 0 12 6 25 14 28 8 3 16 14 19 25
3 10 12 19 20 19 8 0 17 9 20 20 3 11 12 20 19 20 9 0 20 17 27 40 7 22 18 40
26 40 9 0 12 6 8 16 -4 10 1 17 16 21 11 3 21 12 21 19 0 8 11 19 25 24 20 8
25 16 25 45 0 23 5 35 14 35 7 0 16 9 19 20 3 11 12 20 20 20 9 0 21 16 28 35
7 19 19 35 26 35 7 0 13 11 13 25 0 15 6 25 14 25 7 0 16 9 19 20 3 11 12 20
21 20 9 0 16 5 16 11 0 17 37 59 45 51 4 -4 5 6 3 22 -5 22 -2 30 13 33 11 3
19 12 19 20 0 8 8 17 18 20 11 2 25 20 32 39 8 19 20 34 27 34 7 0 13 11 13
25 0 16 6 25 15 25 8 0 15 7 15 16 0 9 9 18 20 21 11 3 20 10 20 17 0 6 12 22
25 35 14 13 25 34 25 47 0 17 6 24 20 24 20 0 20 5 18 318 l-3 317 -1611 3
c-1605 2 -1612 2 -1617 -18 -3 -11 -12 -20 -21 -20 -9 0 -16 -6 -16 -13 0 -7
-11 -24 -25 -39 -14 -15 -25 -36 -25 -48 0 -11 -6 -20 -14 -20 -7 0 -16 -9
-19 -20 -3 -11 -12 -20 -20 -20 -9 0 -21 -16 -28 -35 -7 -19 -18 -35 -25 -35
-7 0 -9 -10 -6 -25 2 -15 0 -25 -7 -25 -6 0 -11 9 -11 20 0 11 -7 20 -15 20
-9 0 -15 9 -15 24 0 13 -11 34 -25 47 -13 13 -25 30 -25 37 0 6 -7 12 -16 12
-9 0 -18 9 -21 19 -3 11 -14 22 -25 24 -14 4 -19 11 -15 21 4 10 1 16 -9 16
-8 0 -17 8 -20 18 -3 9 -11 27 -17 40 l-10 22 -872 0 c-763 0 -874 2 -885 15
-13 16 -32 19 -43 8z m1875 -203 c160 -202 146 -188 161 -166 7 10 59 82 117
160 l105 141 1580 0 1580 0 0 -280 0 -280 -187 -250 c-237 -315 -716 -962
-745 -1006 l-23 -34 0 543 c0 426 -3 542 -12 543 -7 1 -119 1 -248 1 l-235 -1
-3 -791 -2 -791 22 12 c12 6 60 35 107 64 48 28 163 96 256 150 194 113 773
450 915 533 52 30 106 64 119 74 13 10 28 18 32 18 5 0 9 -1054 9 -2396 l0
-2397 -49 -91 c-26 -50 -97 -179 -156 -286 -98 -176 -772 -1526 -805 -1610 -7
-19 -16 -39 -20 -43 -4 -5 -63 63 -131 150 -67 87 -204 262 -304 388 -476 604
-572 729 -601 783 -18 31 -105 275 -194 541 l-162 484 -2 499 c-2 440 -1 501
13 522 15 23 191 260 631 850 107 143 220 298 250 343 30 45 58 82 63 83 4 0
7 -587 7 -1305 l0 -1304 99 -313 c55 -172 108 -342 118 -377 10 -36 24 -66 30
-68 6 -2 20 28 32 69 12 40 55 175 96 299 41 125 86 271 100 325 l26 99 -2
1718 c-1 944 -4 1717 -7 1717 -6 0 -245 -139 -405 -236 l-118 -72 -99 -143
c-55 -79 -124 -180 -153 -224 -30 -44 -105 -145 -167 -225 -410 -529 -504
-648 -512 -644 -4 3 -8 812 -8 1797 l0 1792 -245 3 -245 2 2 -3766 3 -3766
-27 33 c-15 19 -98 129 -185 244 -86 116 -293 391 -460 613 l-303 403 0 3120
0 3119 -77 0 c-43 0 -150 1 -238 1 -88 1 -166 1 -173 0 -10 -1 -12 -747 -10
-3766 2 -2071 1 -3765 -2 -3765 -3 0 -19 20 -36 43 -44 59 -727 975 -840 1127
l-94 125 0 3502 0 3503 852 -2 853 -3 107 -135z"/>
<path d="M16655 12771 c10 -18 -33 -31 -99 -31 -53 0 -66 -3 -66 -15 0 -9 -12
-18 -30 -21 -21 -5 -30 -12 -30 -25 0 -12 -7 -19 -20 -19 -11 0 -20 -7 -20
-15 0 -9 -11 -20 -25 -25 -20 -7 -25 -17 -25 -42 0 -22 -7 -37 -20 -46 -19
-12 -20 -23 -20 -283 l0 -270 -37 3 c-34 3 -38 6 -46 41 -5 21 -15 37 -23 37
-11 0 -14 23 -14 118 0 131 6 166 26 158 11 -4 14 6 14 44 0 38 4 50 15 50 8
0 15 -8 16 -17 1 -29 17 16 18 50 1 24 -2 27 -34 27 -24 0 -35 -5 -35 -15 0
-10 -11 -15 -35 -15 -32 0 -40 7 -36 33 0 4 -15 7 -35 7 -27 0 -37 5 -41 20
-3 11 -14 20 -25 20 -11 0 -22 9 -25 20 -4 17 -14 20 -57 20 -56 -1 -86 -17
-86 -46 0 -35 -12 -64 -26 -64 -10 0 -14 -16 -14 -60 0 -49 -3 -61 -20 -70
-18 -10 -20 -21 -20 -118 0 -96 2 -108 20 -120 17 -10 20 -23 20 -77 0 -54 3
-67 20 -77 14 -9 20 -24 20 -46 0 -25 5 -35 20 -39 15 -4 20 -14 20 -40 0 -26
5 -36 20 -40 10 -3 22 -14 25 -24 4 -10 13 -19 21 -19 8 0 14 -9 14 -20 0 -13
7 -20 20 -20 13 0 20 -7 20 -20 0 -14 7 -20 21 -20 12 0 23 -8 26 -20 4 -14
14 -20 33 -20 28 0 55 -21 43 -33 -3 -4 57 -7 134 -7 132 0 141 1 146 20 4 15
14 20 40 20 26 0 36 5 40 20 4 15 14 20 36 20 22 0 31 5 31 16 0 9 9 18 20 21
13 3 22 17 26 39 3 19 15 39 25 45 15 7 19 21 19 62 1 49 19 94 33 80 4 -3 7
40 7 97 0 83 -3 105 -16 115 -19 14 -30 127 -20 199 6 36 11 46 27 46 12 0 19
-7 19 -20 0 -11 7 -20 15 -20 11 0 15 -11 15 -36 0 -27 5 -37 20 -41 17 -5 20
-14 20 -64 0 -52 -2 -59 -20 -59 -18 0 -20 -7 -20 -60 l0 -60 41 0 c32 0 42
-4 46 -20 4 -14 14 -20 35 -20 21 0 31 -6 35 -20 3 -11 13 -20 23 -20 29 0 50
-11 50 -26 0 -18 100 -20 118 -2 7 7 12 33 12 59 0 38 4 48 20 52 19 5 20 14
20 167 0 105 -3 159 -10 155 -13 -8 -30 37 -30 77 0 21 -6 31 -20 35 -15 4
-20 14 -20 40 0 26 -5 36 -20 40 -11 3 -20 14 -20 25 0 10 -13 32 -30 48 -16
16 -30 34 -30 40 0 5 -7 10 -15 10 -8 0 -20 9 -27 20 -7 11 -23 20 -36 20 -15
0 -26 7 -29 20 -4 16 -14 20 -50 20 -48 0 -87 15 -78 31 4 5 -12 9 -35 9 -23
0 -39 -4 -35 -9z m145 -70 c136 -52 244 -208 286 -411 20 -99 15 -178 -17
-271 -26 -77 -37 -93 -54 -79 -6 5 -56 33 -111 61 -132 68 -130 66 -109 123
23 61 15 131 -25 213 -33 66 -56 81 -104 69 -42 -10 -50 -50 -36 -183 18 -169
10 -335 -18 -396 -60 -134 -182 -207 -344 -207 -90 0 -129 13 -204 70 -88 67
-175 221 -218 388 -22 81 -20 203 3 288 21 77 67 184 78 184 11 -1 203 -114
231 -137 l22 -18 -22 -44 c-71 -143 5 -420 113 -409 20 2 39 12 51 29 18 24
19 34 8 210 -10 160 -10 193 4 252 34 147 108 234 231 273 62 20 177 17 235
-5z"/>
<path d="M3307 9960 c-4 -15 -14 -20 -41 -20 -29 0 -36 -4 -36 -20 0 -13 -7
-20 -20 -20 -11 0 -20 -7 -20 -15 0 -9 -11 -20 -25 -25 -20 -8 -25 -16 -25
-44 0 -26 -5 -36 -20 -41 -18 -6 -20 -15 -20 -95 0 -80 2 -89 20 -95 15 -5 20
-15 20 -42 0 -26 5 -36 20 -40 11 -3 20 -14 20 -24 0 -14 7 -19 25 -19 18 0
25 -5 25 -20 0 -16 7 -20 31 -20 22 0 32 -5 36 -20 5 -18 14 -20 113 -20 99 0
108 2 113 20 4 15 14 20 36 20 17 0 30 5 29 11 -2 6 6 16 16 22 34 21 56 47
56 66 0 10 9 21 20 24 19 5 20 14 20 137 0 123 -1 132 -20 137 -11 3 -20 13
-20 23 0 10 -7 20 -15 24 -8 3 -15 11 -15 18 0 7 -10 18 -22 23 -13 6 -22 16
-20 23 1 7 -10 12 -29 12 -22 0 -32 5 -36 20 -5 18 -14 20 -108 20 -94 0 -103
-2 -108 -20z m208 -44 c89 -41 145 -122 153 -223 4 -54 1 -70 -22 -117 -51
-103 -155 -164 -261 -153 -176 18 -285 205 -211 362 63 133 213 191 341 131z"/>
<path d="M16610 9966 c0 -15 -21 -26 -51 -26 -11 0 -19 -7 -19 -16 0 -9 -9
-18 -19 -21 -11 -3 -21 -13 -24 -24 -3 -10 -12 -19 -21 -19 -9 0 -16 -8 -16
-19 0 -10 -9 -21 -20 -24 -19 -5 -20 -14 -20 -137 0 -123 1 -132 20 -137 11
-3 20 -14 20 -24 0 -19 22 -45 56 -66 10 -6 18 -16 17 -22 -2 -6 11 -11 28
-11 22 0 32 -5 36 -20 5 -18 14 -20 109 -20 82 0 104 3 104 14 0 16 21 26 56
26 17 0 24 6 24 20 0 13 7 20 19 20 11 0 22 9 26 19 3 10 15 21 25 24 15 4 20
14 20 40 0 26 5 36 20 40 18 5 20 14 20 97 0 83 -2 92 -20 97 -15 4 -20 14
-20 39 0 28 -5 36 -25 44 -14 5 -25 16 -25 25 0 8 -9 15 -20 15 -13 0 -20 7
-20 20 0 14 -7 20 -21 20 -28 0 -61 19 -54 31 4 5 -35 9 -99 9 -84 0 -106 -3
-106 -14z m215 -54 c121 -62 178 -213 125 -329 -30 -68 -99 -129 -166 -149
-163 -47 -316 58 -331 228 -11 119 65 229 187 269 41 14 142 3 185 -19z"/>
<path d="M4037 7840 c-4 -17 -14 -20 -60 -20 -46 0 -55 -3 -60 -20 -4 -16 -14
-20 -50 -20 -36 0 -46 -4 -50 -20 -4 -16 -14 -20 -50 -20 -36 0 -46 -4 -50
-20 -4 -17 -14 -20 -60 -20 -46 0 -55 -3 -60 -20 -4 -17 -14 -20 -61 -20 -41
0 -56 -4 -56 -14 0 -8 -13 -19 -30 -25 -27 -9 -30 -14 -30 -50 0 -30 -4 -41
-15 -41 -10 0 -15 -10 -15 -30 0 -23 4 -30 20 -30 11 0 20 7 20 15 0 8 6 15
14 15 10 0 16 -14 18 -42 2 -34 7 -43 21 -42 9 1 48 2 86 3 61 1 69 3 74 22 4
16 12 20 34 17 22 -2 28 -8 26 -25 -2 -14 3 -23 11 -23 14 0 26 -29 26 -67 0
-13 11 -30 25 -39 14 -9 25 -23 25 -30 0 -8 8 -14 19 -14 21 0 45 -23 34 -33
-3 -4 13 -7 36 -7 34 0 44 -4 48 -20 5 -17 14 -20 69 -20 48 0 64 3 64 14 0
17 22 26 62 26 17 0 28 3 25 7 -12 11 14 33 39 33 15 0 24 -6 24 -16 0 -11 5
-14 16 -10 9 3 18 6 20 6 11 0 2 39 -11 44 -23 8 -19 53 5 59 19 5 20 14 20
135 0 122 -1 131 -20 137 -16 5 -20 15 -20 50 0 33 -3 43 -14 39 -14 -5 -26
33 -26 82 0 13 -9 28 -20 34 -11 6 -20 17 -20 25 0 11 -13 15 -49 15 -40 0
-50 -3 -54 -20z m123 -137 c67 -187 75 -225 61 -287 -14 -65 -63 -126 -124
-155 -51 -25 -150 -28 -200 -7 -64 26 -124 112 -158 224 -7 23 -14 42 -17 42
-3 0 -45 -16 -93 -35 -101 -40 -117 -42 -125 -17 -3 9 -14 37 -25 61 -25 56
-24 57 106 104 55 20 190 70 300 111 110 41 207 75 216 75 12 1 28 -31 59
-116z"/>
<path d="M3937 7600 c-38 -16 -72 -31 -75 -35 -3 -3 3 -31 13 -63 20 -60 71
-122 100 -122 28 0 85 31 96 52 22 41 -17 199 -50 197 -9 0 -47 -13 -84 -29z"/>
<path d="M16053 7854 c10 -11 -13 -34 -34 -34 -10 0 -21 -9 -24 -20 -3 -11
-15 -20 -25 -20 -14 0 -21 -10 -26 -36 -4 -23 -13 -38 -25 -41 -11 -3 -20 -19
-24 -45 -5 -28 -11 -38 -21 -34 -12 4 -14 -22 -14 -154 0 -117 3 -159 12 -158
6 2 17 -8 24 -21 7 -13 20 -28 28 -33 20 -11 21 -48 2 -48 -7 0 -16 9 -19 21
-7 27 -31 20 -35 -10 -3 -16 2 -24 17 -28 12 -3 21 -14 21 -24 0 -24 35 -26
48 -3 11 20 52 10 52 -12 0 -9 11 -14 30 -14 20 0 30 -5 30 -15 0 -11 -11 -15
-40 -15 -28 0 -40 -4 -40 -14 0 -27 76 -37 86 -11 11 27 104 17 104 -11 0 -11
17 -14 70 -14 53 0 70 3 70 14 0 17 22 26 66 26 22 0 34 5 34 14 0 15 21 26
51 26 12 0 19 7 19 20 0 13 7 20 19 20 11 0 23 9 26 20 3 11 12 20 20 20 8 0
16 9 20 19 3 10 15 21 25 24 15 4 20 14 20 40 0 27 5 37 20 42 19 6 20 15 20
155 0 140 -1 149 -20 155 -11 4 -20 15 -20 26 0 11 -7 22 -15 25 -8 4 -15 12
-15 20 0 9 -11 14 -29 14 -39 0 -61 9 -61 26 0 10 -13 14 -46 14 -37 0 -47 4
-51 20 -5 17 -14 20 -68 20 -48 0 -64 4 -69 16 -3 9 -15 14 -28 12 -33 -4 -33
-53 -1 -52 19 0 22 -3 16 -25 -3 -14 -12 -30 -20 -34 -7 -4 -13 -23 -13 -41 0
-25 -5 -35 -20 -39 -15 -4 -20 -14 -20 -39 -1 -18 -7 -44 -15 -58 l-14 -25 -1
28 c0 15 -3 27 -7 27 -5 0 -7 -46 -7 -102 2 -94 4 -104 25 -121 14 -11 30 -16
43 -12 12 4 27 7 34 7 20 2 14 13 -20 33 l-33 20 89 3 c65 2 92 -1 98 -10 4
-7 8 18 8 60 0 70 1 72 24 72 24 0 24 -2 20 -57 -7 -84 -13 -103 -28 -103 -8
0 -13 -8 -12 -17 1 -13 -8 -19 -31 -21 -19 -2 -33 -9 -33 -17 0 -7 -7 -16 -16
-19 -41 -16 -122 3 -109 25 4 5 -9 9 -29 9 -29 0 -36 4 -36 20 0 12 -7 20 -16
20 -13 0 -15 7 -9 43 7 44 8 96 4 148 -1 19 4 36 12 43 9 6 18 19 22 29 3 9
15 17 26 17 11 0 21 9 25 23 9 33 7 82 -3 93 -5 5 -11 25 -13 44 l-3 35 -65 3
c-35 2 -61 0 -57 -4z m87 -70 c11 -25 20 -52 20 -60 0 -8 -18 -32 -41 -55 -54
-54 -79 -110 -79 -182 0 -144 127 -241 270 -207 99 24 160 111 160 228 0 44
-4 53 -31 77 -18 14 -38 25 -47 23 -8 -2 -28 -38 -45 -80 -27 -70 -33 -78 -56
-77 -41 1 -96 24 -99 42 -2 9 17 67 42 130 25 63 46 122 46 131 0 9 7 19 16
23 20 7 195 -48 241 -77 87 -53 107 -234 41 -368 -34 -68 -109 -144 -175 -177
-52 -27 -68 -30 -153 -30 -88 0 -101 3 -162 33 -139 68 -218 230 -189 388 15
80 56 160 107 209 34 33 94 73 112 75 1 0 12 -21 22 -46z"/>
<path d="M4378 7132 c15 -10 -27 -32 -60 -32 -12 0 -18 -3 -15 -7 13 -13 -16
-33 -49 -33 -19 0 -33 -3 -33 -7 4 -25 -4 -33 -35 -33 -25 0 -35 -5 -39 -20
-4 -14 -14 -20 -35 -20 -21 0 -31 -6 -35 -20 -4 -15 -14 -20 -40 -20 -26 0
-36 -5 -40 -20 -4 -15 -14 -20 -40 -20 -26 0 -36 -5 -40 -20 -4 -16 -14 -20
-43 -20 -20 0 -34 -3 -31 -7 12 -11 -15 -33 -42 -33 -47 -1 -84 -49 -47 -63 7
-3 16 -24 20 -47 5 -30 12 -43 26 -47 16 -4 20 -14 20 -44 0 -32 3 -39 20 -39
16 0 20 -7 20 -36 0 -27 5 -37 20 -41 15 -4 20 -14 20 -40 0 -26 5 -36 20 -40
15 -4 20 -14 20 -40 0 -26 5 -36 19 -40 11 -3 21 -13 24 -24 4 -15 14 -19 46
-19 28 0 41 4 41 14 0 17 22 26 60 26 34 0 50 23 50 72 0 36 20 88 33 88 5 0
11 -9 14 -20 4 -16 14 -20 48 -20 34 0 44 4 48 20 4 14 14 20 35 20 49 0 62 9
62 44 0 45 10 76 25 76 8 0 15 -9 17 -20 2 -12 6 -21 11 -20 4 0 32 0 63 0 38
0 53 3 48 11 -9 15 14 29 49 29 26 0 27 1 27 60 0 53 -2 60 -20 60 -16 0 -20
7 -20 36 0 27 -5 37 -20 41 -15 4 -20 14 -20 40 0 26 -5 36 -20 40 -15 4 -20
14 -20 40 0 26 -5 36 -20 40 -15 4 -20 14 -20 40 0 26 -5 36 -20 40 -13 4 -20
14 -20 31 0 31 -26 51 -65 52 -19 0 -25 -3 -17 -8z m136 -247 c58 -113 106
-209 106 -214 0 -12 -123 -67 -127 -56 -23 60 -133 261 -144 263 -9 1 -36 -9
-62 -23 l-46 -26 64 -130 c36 -71 65 -132 65 -136 0 -5 -25 -20 -55 -34 -43
-21 -57 -24 -65 -14 -6 7 -35 61 -66 121 -30 60 -59 113 -64 118 -10 10 -130
-43 -130 -58 0 -5 32 -70 70 -144 54 -102 68 -137 60 -147 -6 -8 -33 -25 -60
-39 l-49 -26 -91 178 c-50 97 -100 194 -111 214 -11 20 -16 39 -12 41 5 3 76
40 158 83 83 43 215 113 295 155 80 42 148 77 152 78 3 1 54 -91 112 -204z"/>
<path d="M15745 7071 c-3 -6 -28 -11 -54 -11 -54 0 -71 -12 -71 -51 0 -18 -6
-28 -20 -32 -16 -4 -20 -14 -20 -45 0 -26 -5 -42 -15 -46 -21 -8 -20 -82 1
-90 20 -8 46 18 38 38 -3 9 -1 16 5 16 6 0 11 -7 11 -15 0 -11 11 -15 36 -15
27 0 37 -5 41 -20 3 -13 14 -20 28 -20 24 0 49 -22 38 -33 -3 -4 9 -7 28 -7
19 0 48 -9 64 -20 l30 -20 -77 0 c-60 0 -78 -3 -78 -14 0 -20 -33 -26 -158
-26 -75 0 -111 -3 -107 -10 4 -6 -7 -15 -23 -21 -17 -6 -33 -17 -36 -25 -3 -9
-10 -12 -16 -9 -6 4 -10 -6 -10 -23 0 -20 -6 -31 -19 -35 -12 -3 -20 -17 -25
-46 -8 -53 -4 -59 42 -66 60 -11 72 -16 72 -31 0 -9 11 -14 31 -14 22 0 32 -5
36 -20 4 -14 14 -20 35 -20 21 0 31 -6 35 -20 3 -13 14 -20 28 -20 24 0 49
-22 38 -33 -3 -4 8 -7 25 -7 40 0 62 -9 62 -26 0 -8 9 -14 19 -14 30 0 51 -11
51 -26 0 -9 11 -14 31 -14 22 0 32 -5 36 -20 4 -14 14 -20 35 -20 21 0 31 -6
35 -20 8 -29 68 -28 76 1 4 15 11 20 21 16 11 -5 16 0 16 12 0 30 11 51 27 51
11 0 13 14 11 68 l-3 67 -35 3 c-58 4 -80 12 -80 27 0 9 -10 15 -24 15 -14 0
-28 5 -31 10 -4 6 12 10 39 10 47 0 54 8 40 44 -9 24 -71 21 -86 -4 -17 -26
-64 -27 -78 -1 -5 11 -20 22 -32 24 -13 2 -2 2 25 0 38 -4 46 -2 41 10 -8 22
25 27 179 27 85 0 136 4 132 9 -7 12 26 31 53 31 12 0 22 9 25 21 4 15 11 20
21 16 12 -5 16 0 16 17 0 15 7 26 21 29 18 5 20 12 17 59 l-3 53 -42 3 c-39 3
-48 10 -44 35 0 4 -17 7 -39 7 -33 0 -40 3 -40 20 0 16 -7 20 -36 20 -27 0
-37 5 -41 20 -4 14 -14 20 -34 20 -35 0 -48 19 -24 36 25 19 10 30 -19 15 -26
-14 -60 -12 -58 4 1 6 13 11 27 13 23 3 26 7 23 40 l-3 37 -59 3 c-46 2 -62
-1 -68 -12 -13 -24 -59 -20 -65 4 -4 15 -14 20 -39 20 -40 0 -54 18 -29 36 10
8 16 16 13 20 -3 3 -9 1 -13 -5z m28 -98 c45 -25 177 -98 292 -160 116 -63
214 -118 219 -123 4 -4 -6 -32 -24 -62 l-32 -54 -247 -37 c-135 -21 -258 -37
-273 -37 -16 0 -28 -4 -28 -8 0 -4 86 -54 190 -111 105 -57 190 -108 190 -112
0 -16 -62 -119 -71 -119 -5 0 -144 75 -309 166 l-300 166 20 37 c49 85 31 78
309 121 233 36 272 44 260 53 -9 8 -296 167 -321 178 -16 7 -28 16 -28 21 0
17 55 128 63 128 4 0 45 -21 90 -47z"/>
<path d="M4740 6445 c0 -9 -12 -18 -29 -21 -17 -4 -31 -14 -34 -25 -3 -11 -14
-19 -25 -19 -11 0 -22 -9 -25 -20 -4 -14 -14 -20 -35 -20 -21 0 -31 -6 -35
-20 -3 -12 -14 -20 -26 -20 -14 0 -21 -6 -21 -20 0 -16 -7 -20 -30 -20 -20 0
-30 -5 -30 -15 0 -9 -12 -18 -30 -21 -16 -4 -29 -9 -28 -13 2 -22 -5 -31 -27
-31 -16 0 -25 -6 -25 -15 0 -9 -12 -18 -29 -21 -17 -4 -31 -14 -34 -25 -4 -14
-14 -19 -40 -19 -56 0 -67 -8 -67 -49 0 -72 11 -111 31 -111 17 0 24 -11 20
-32 0 -5 8 -17 19 -28 14 -14 33 -20 67 -20 25 0 43 3 40 7 -11 10 13 33 34
33 14 0 19 -7 19 -31 0 -29 1 -30 22 -15 31 22 38 20 38 -8 0 -15 -7 -26 -20
-29 -15 -4 -20 -14 -20 -40 0 -20 -4 -39 -10 -42 -5 -3 -10 -19 -10 -35 0 -16
5 -32 10 -35 6 -3 10 -15 10 -26 0 -10 5 -19 10 -19 6 0 17 -18 26 -40 11 -28
22 -40 36 -40 11 0 22 -8 25 -20 9 -33 41 -24 61 18 9 20 23 41 30 45 6 4 12
21 12 37 0 39 18 83 30 75 6 -4 10 12 10 39 l0 46 115 0 c63 0 114 3 114 8 -4
23 4 32 26 32 16 0 25 6 25 16 0 9 9 18 20 21 11 3 20 13 20 23 0 10 9 20 20
23 19 5 20 14 20 137 0 123 -1 132 -20 137 -11 3 -20 11 -20 19 0 7 -9 18 -20
24 -11 6 -20 21 -20 33 0 27 -10 41 -32 50 -10 3 -18 13 -18 22 0 8 -7 15 -15
15 -10 0 -15 11 -15 35 0 29 -5 37 -25 45 -14 5 -25 16 -25 25 0 11 -10 15
-35 15 -25 0 -35 -4 -35 -15z m117 -140 c31 -44 74 -114 96 -155 34 -66 38
-81 34 -122 -17 -139 -136 -233 -266 -208 -30 5 -58 10 -62 10 -11 0 -45 -76
-85 -187 -16 -46 -34 -83 -40 -83 -13 0 -94 124 -94 143 0 7 20 59 45 115 25
56 45 111 45 121 0 27 -32 81 -48 81 -7 0 -53 -28 -102 -62 -49 -34 -91 -60
-93 -57 -2 2 -23 32 -45 66 l-42 61 67 42 c36 23 150 101 252 172 102 72 202
141 221 154 33 23 36 24 48 7 7 -10 38 -54 69 -98z"/>
<path d="M4675 6164 c-27 -19 -56 -39 -64 -43 -21 -13 -5 -45 52 -106 59 -62
87 -69 131 -34 50 39 51 64 11 146 -42 86 -54 89 -130 37z"/>
<path d="M15157 6240 c-9 -11 -14 -26 -11 -35 4 -10 -3 -18 -20 -25 -24 -9
-26 -14 -26 -69 0 -54 -2 -59 -25 -65 -28 -7 -35 -40 -10 -50 8 -3 15 -11 15
-19 0 -7 9 -13 19 -13 13 0 21 9 25 28 5 23 11 28 36 28 23 0 30 -4 30 -20 0
-14 7 -20 21 -20 12 0 23 -8 26 -19 3 -11 17 -21 34 -25 17 -3 29 -12 29 -21
0 -9 9 -15 25 -15 22 0 30 -9 26 -32 0 -5 11 -8 25 -8 17 0 28 -6 31 -20 4
-13 14 -20 30 -20 16 0 27 -7 30 -20 3 -11 14 -20 25 -20 11 0 22 -9 25 -20 4
-14 14 -20 34 -20 26 0 34 -9 30 -32 0 -5 8 -8 20 -8 13 0 23 -8 26 -20 5 -18
12 -21 56 -18 48 3 51 5 62 38 6 19 19 36 28 38 10 2 17 12 17 23 0 21 16 26
23 7 3 -7 6 8 6 35 1 42 -2 49 -24 57 -14 5 -25 16 -25 25 0 11 -10 15 -35 15
-32 0 -40 7 -36 33 0 4 -10 7 -24 7 -22 0 -30 9 -26 33 0 4 -10 7 -23 7 -25 0
-51 22 -39 33 3 4 -8 7 -25 7 -25 0 -32 4 -32 20 0 14 -7 20 -21 20 -12 0 -23
8 -26 20 -4 14 -14 20 -34 20 -22 0 -29 5 -29 20 0 15 -7 20 -25 20 -22 0 -30
9 -26 33 0 4 -15 7 -34 7 -32 0 -40 7 -36 33 0 4 -8 7 -20 7 -12 0 -23 8 -26
20 -7 28 -72 28 -96 0z m316 -204 c144 -102 271 -191 282 -199 20 -15 20 -15
-1 -43 -11 -16 -28 -44 -38 -61 -9 -18 -21 -33 -26 -33 -10 0 -69 40 -343 235
-101 72 -194 137 -207 146 l-24 16 32 39 c18 21 32 43 32 49 0 10 20 35 27 35
2 0 122 -83 266 -184z"/>
<path d="M14870 5840 c0 -13 -7 -20 -20 -20 -27 0 -46 -64 -34 -116 8 -31 15
-39 42 -46 17 -5 32 -15 32 -23 0 -7 9 -17 20 -20 11 -3 20 -10 20 -15 0 -5
-27 2 -60 16 -33 13 -62 24 -65 24 -3 0 -5 -18 -5 -40 0 -33 3 -40 19 -40 11
0 21 -5 23 -10 5 -15 118 -26 118 -12 0 5 -7 12 -15 16 -22 8 -18 26 6 26 12
0 23 -8 26 -20 3 -11 14 -20 24 -20 10 0 23 -9 29 -20 11 -20 8 -20 -160 -20
-164 0 -218 8 -205 31 4 5 -3 9 -14 9 -12 0 -20 -6 -18 -12 1 -8 -15 -17 -40
-22 -31 -7 -43 -15 -43 -28 0 -11 -7 -18 -19 -18 -26 0 -28 -5 -32 -80 -3 -45
0 -65 8 -65 6 0 15 -3 19 -7 4 -5 18 -8 32 -8 15 0 26 -7 29 -19 3 -11 13 -21
24 -24 10 -3 19 -12 19 -21 0 -9 7 -16 16 -16 9 0 18 -9 21 -20 3 -11 12 -20
20 -20 8 0 17 -9 20 -20 3 -11 14 -20 23 -20 10 0 22 -9 25 -20 3 -11 13 -20
22 -20 8 0 17 -9 20 -19 3 -11 16 -22 29 -25 13 -4 24 -13 24 -21 0 -9 10 -15
25 -15 18 0 25 -5 25 -20 0 -13 7 -20 20 -20 18 0 25 -10 21 -32 0 -5 8 -8 20
-8 12 0 23 -8 26 -20 4 -17 14 -20 54 -20 38 0 49 4 49 16 0 9 9 18 19 21 11
3 21 13 24 24 3 11 14 19 27 19 19 0 21 4 18 58 l-3 57 -39 3 c-28 2 -40 9
-43 23 -3 10 -12 19 -20 19 -8 0 -17 9 -20 19 -3 11 -13 21 -24 24 -10 3 -19
12 -19 21 0 9 -8 16 -19 16 -11 0 -22 8 -25 18 -4 10 -23 27 -44 37 -20 10
-31 20 -25 22 7 3 26 -5 42 -16 27 -20 42 -21 249 -21 211 0 220 1 225 20 3
12 14 20 26 20 14 0 21 6 21 19 0 10 9 21 20 24 15 4 20 14 20 36 0 20 -7 34
-20 41 -11 6 -20 17 -20 25 0 9 -10 15 -25 15 -18 0 -25 5 -25 20 0 14 -7 20
-21 20 -12 0 -23 8 -26 20 -3 11 -11 20 -18 20 -8 0 -17 9 -20 20 -4 13 -15
20 -32 20 -16 0 -27 7 -30 20 -3 11 -14 20 -25 20 -11 0 -22 9 -25 20 -3 11
-12 20 -20 20 -8 0 -17 9 -20 20 -3 11 -12 20 -20 20 -8 0 -17 9 -20 19 -3 11
-13 21 -24 24 -10 3 -19 12 -19 21 0 10 -8 16 -21 16 -14 0 -19 5 -17 18 2 9
10 16 16 15 7 -2 12 4 12 12 0 17 -16 20 -25 5 -11 -17 -43 -11 -50 10 -5 17
-15 20 -71 20 -57 0 -64 -2 -64 -20z m152 -72 c46 -40 146 -129 224 -198 77
-69 155 -137 172 -153 18 -15 32 -30 32 -35 0 -4 -17 -26 -38 -48 l-37 -42
-240 14 c-132 8 -257 13 -277 12 l-38 -3 139 -120 c76 -66 148 -128 160 -137
11 -10 21 -21 21 -25 -1 -5 -22 -32 -49 -61 l-47 -54 -205 184 c-113 101 -230
206 -262 233 l-56 50 44 49 45 48 266 -17 c146 -9 267 -15 270 -13 2 2 -62 62
-141 132 -80 71 -150 135 -156 142 -9 10 -1 25 32 63 24 28 47 50 51 51 5 0
45 -32 90 -72z"/>
<path d="M5160 5785 c0 -8 9 -15 20 -15 25 0 26 -20 1 -27 -11 -3 -21 -13 -24
-24 -3 -11 -14 -19 -26 -19 -12 0 -20 -3 -20 -7 4 -23 -3 -33 -21 -33 -13 0
-20 -7 -20 -20 0 -13 -7 -20 -20 -20 -13 0 -20 -7 -20 -20 0 -13 -7 -20 -19
-20 -10 0 -21 -9 -24 -20 -3 -12 -14 -20 -26 -20 -12 0 -20 -3 -20 -7 4 -22
-3 -33 -20 -33 -10 0 -21 -9 -24 -20 -3 -11 -14 -20 -25 -20 -11 0 -22 -9 -25
-20 -3 -11 -14 -20 -25 -20 -11 0 -22 -9 -25 -20 -3 -11 -12 -20 -20 -20 -9 0
-18 -9 -22 -19 -3 -11 -16 -21 -28 -23 -19 -3 -22 -10 -25 -51 -2 -31 1 -47 7
-43 5 4 13 0 18 -8 4 -7 16 -15 27 -17 11 -3 23 -18 30 -39 10 -33 14 -35 59
-38 38 -3 47 0 47 13 0 9 9 19 20 22 11 3 20 12 20 20 0 8 9 17 19 20 11 3 21
13 24 24 3 11 14 19 25 19 12 0 22 9 25 21 4 13 12 19 23 17 26 -5 28 -25 3
-31 -24 -6 -21 -30 4 -35 10 -2 17 3 17 12 0 23 31 20 37 -3 3 -11 13 -21 24
-24 10 -3 19 -12 19 -20 0 -8 9 -17 20 -20 11 -3 20 -12 20 -21 0 -13 12 -16
60 -16 39 0 59 4 58 11 -2 7 12 18 30 25 28 12 32 12 32 -1 0 -8 7 -15 15 -15
8 0 15 9 15 20 0 11 -5 20 -11 20 -7 0 -9 14 -5 43 4 23 7 52 7 65 1 23 19 32
19 8 0 -33 114 -28 123 5 3 11 14 19 26 19 14 0 21 6 21 19 0 11 9 23 20 26
27 9 28 61 1 70 -11 3 -23 14 -26 24 -3 11 -15 21 -25 24 -11 3 -20 12 -20 20
0 8 -9 17 -20 20 -11 3 -20 12 -20 21 0 9 -7 16 -16 16 -9 0 -18 9 -21 20 -3
11 -12 20 -20 20 -8 0 -17 9 -20 20 -3 11 -12 20 -19 20 -8 0 -14 9 -14 20 0
13 -7 20 -20 20 -14 0 -20 7 -20 24 0 51 -8 56 -81 56 -39 0 -69 4 -69 10 0 6
-7 10 -15 10 -8 0 -15 -7 -15 -15z m149 -77 c23 -29 92 -106 153 -171 l111
-118 -49 -44 c-27 -24 -54 -44 -60 -45 -6 0 -48 44 -94 98 -115 134 -107 131
-165 72 l-48 -49 72 -80 c40 -45 77 -81 82 -81 5 0 11 -11 15 -24 4 -18 -3
-32 -37 -64 -25 -25 -46 -39 -54 -34 -6 4 -47 46 -91 95 -43 48 -83 87 -88 87
-11 0 -81 -56 -148 -117 -26 -24 -53 -43 -61 -43 -21 0 -100 98 -91 112 5 7
22 24 38 38 69 58 442 396 449 407 13 21 21 16 66 -39z"/>
<path d="M5516 5169 c-8 -43 -8 -79 2 -78 20 3 32 -2 32 -16 0 -8 -8 -15 -19
-15 -10 0 -21 -9 -24 -20 -3 -11 -12 -20 -21 -20 -9 0 -16 -7 -16 -15 0 -9
-11 -20 -25 -25 -20 -8 -25 -16 -25 -44 0 -25 -5 -35 -20 -39 -19 -5 -20 -14
-20 -146 0 -106 3 -140 12 -139 7 2 17 -15 23 -38 6 -25 15 -39 22 -37 13 5
17 -2 27 -49 4 -19 13 -28 26 -28 13 0 20 -7 20 -20 0 -15 7 -20 26 -20 17 0
28 -6 31 -20 4 -14 14 -20 35 -20 21 0 31 -6 35 -20 5 -19 14 -20 166 -20 88
0 157 3 154 7 -10 10 13 33 33 33 10 0 20 9 23 20 3 14 14 20 32 20 14 0 24 4
20 9 -3 6 4 15 15 21 11 6 20 20 20 30 0 11 7 20 15 20 8 0 21 16 30 36 8 19
19 33 25 29 7 -4 10 50 10 160 0 158 -1 167 -20 172 -15 4 -20 14 -20 39 0 28
-5 36 -25 44 -14 5 -25 16 -25 25 0 8 -7 15 -16 15 -9 0 -18 9 -21 20 -3 11
-14 20 -25 20 -11 0 -22 9 -25 20 -4 15 -14 20 -40 20 -26 0 -36 5 -40 20 -5
19 -14 20 -148 20 -134 0 -143 -1 -148 -20 -4 -15 -14 -20 -42 -20 -42 0 -45
21 -4 30 13 3 24 11 23 18 -1 7 -2 21 -2 32 -2 16 -9 20 -41 20 -35 0 -39 -3
-45 -31z m399 -91 c129 -49 226 -185 234 -326 4 -91 -11 -148 -60 -221 -70
-105 -162 -152 -294 -152 -113 0 -179 26 -256 101 -82 81 -113 149 -117 262
-4 81 -2 93 27 153 38 82 112 156 183 184 76 29 207 29 283 -1z"/>
<path d="M5715 4948 c-144 -50 -197 -248 -95 -353 113 -117 294 -87 361 60 78
170 -90 355 -266 293z m182 -67 c3 -11 13 -21 24 -24 13 -3 19 -14 19 -31 0
-14 9 -34 20 -43 11 -10 20 -30 20 -45 0 -17 -7 -31 -20 -38 -14 -8 -20 -21
-20 -45 0 -28 -4 -35 -19 -35 -10 0 -21 -9 -24 -20 -5 -18 -14 -20 -107 -20
-92 0 -102 2 -107 19 -3 11 -13 21 -24 24 -10 3 -19 12 -19 21 0 9 -4 16 -10
16 -6 0 -10 33 -10 80 0 64 3 80 15 80 8 0 15 7 15 15 0 7 6 18 13 22 8 4 16
16 20 26 5 15 20 17 108 17 91 0 101 -2 106 -19z"/>
<path d="M14227 5160 c-3 -12 -14 -20 -26 -20 -14 0 -21 -6 -21 -19 0 -10 -9
-21 -20 -24 -15 -4 -20 -14 -20 -37 0 -23 5 -33 20 -37 11 -3 20 -14 20 -24 0
-13 7 -19 21 -19 12 0 23 -8 26 -20 3 -11 12 -20 20 -20 8 0 17 -9 20 -20 3
-11 12 -20 19 -20 8 0 14 -8 14 -19 0 -10 9 -21 20 -24 12 -3 20 -14 20 -26 0
-12 5 -21 10 -21 6 0 10 -7 10 -15 0 -8 7 -15 15 -15 9 0 19 -8 22 -17 4 -10
12 -22 20 -26 7 -4 13 -14 13 -21 0 -8 9 -16 20 -19 11 -3 20 -12 20 -20 0 -8
9 -17 20 -20 11 -3 20 -12 20 -20 0 -8 9 -17 20 -20 11 -3 20 -12 20 -21 0 -9
7 -16 15 -16 8 0 15 -9 15 -19 0 -12 9 -21 25 -25 14 -4 25 -13 25 -21 0 -10
10 -15 30 -15 23 0 30 4 30 20 0 11 6 20 14 20 7 0 16 9 19 19 2 11 15 21 28
23 22 3 24 9 27 60 3 58 -15 98 -45 98 -7 0 -21 18 -30 40 -11 24 -24 40 -35
40 -9 0 -19 9 -23 19 -3 11 -12 22 -20 25 -8 3 -15 12 -15 20 0 7 -9 16 -20
19 -11 3 -20 12 -20 21 0 9 -7 16 -16 16 -9 0 -18 9 -21 20 -3 11 -12 20 -20
20 -8 0 -17 9 -20 20 -3 11 -12 20 -19 20 -8 0 -14 8 -14 19 0 10 -9 21 -20
24 -11 3 -20 12 -20 21 0 9 -8 16 -20 16 -13 0 -20 7 -20 19 0 10 -7 21 -15
25 -8 3 -15 12 -15 21 0 12 -13 15 -59 15 -50 0 -59 -3 -64 -20z m107 -35 c15
-19 57 -67 94 -108 168 -183 317 -349 320 -358 2 -5 -19 -31 -46 -59 l-50 -51
-30 28 c-30 27 -292 317 -392 433 l-50 58 52 46 c29 25 58 46 64 46 6 0 24
-16 38 -35z"/>
<path d="M13690 4726 c0 -15 -21 -26 -51 -26 -17 0 -19 -8 -19 -100 0 -87 3
-104 20 -122 16 -18 20 -36 20 -94 0 -58 3 -75 17 -83 13 -7 19 -29 24 -93 3
-45 7 -78 8 -73 1 6 8 -1 16 -15 9 -15 14 -53 15 -96 0 -50 4 -73 13 -77 7 -3
19 -23 26 -46 9 -33 16 -41 35 -41 15 0 26 7 29 20 3 11 14 20 25 20 11 0 22
8 25 19 3 14 15 21 43 23 l39 3 1 95 c0 88 2 95 21 98 12 2 23 12 26 23 4 14
14 19 36 19 24 0 31 4 31 20 0 14 7 20 24 20 15 0 26 7 29 20 7 25 27 26 34 1
3 -11 17 -21 34 -25 17 -3 29 -12 29 -21 0 -22 37 -18 43 5 3 14 14 20 31 20
14 0 25 3 25 8 -4 23 5 31 39 34 l37 3 0 55 c0 53 -1 55 -28 58 -15 2 -33 12
-40 23 -6 10 -22 19 -34 19 -15 0 -23 6 -23 16 0 12 6 15 23 10 12 -3 25 -6
30 -6 4 0 7 -6 7 -14 0 -12 28 -25 53 -26 4 0 7 18 7 41 0 24 -4 38 -10 34 -5
-3 -10 -1 -10 4 0 6 -21 11 -50 11 -43 0 -50 3 -50 20 0 16 -7 20 -30 20 -18
0 -33 -6 -36 -15 -9 -23 -65 -19 -71 5 -4 14 -14 20 -34 20 -20 0 -29 5 -29
16 0 12 9 15 38 12 31 -3 37 0 37 17 0 16 -8 21 -37 23 -29 2 -38 0 -38 -12 0
-9 -6 -16 -14 -16 -25 0 -46 12 -46 26 0 9 -11 14 -31 14 -22 0 -32 5 -36 20
-4 14 -14 20 -35 20 -21 0 -31 6 -35 20 -3 13 -14 20 -28 20 -24 0 -49 22 -38
33 3 4 -26 7 -65 7 -55 0 -72 -3 -72 -14z m162 -63 c237 -144 528 -329 528
-335 0 -14 -107 -88 -128 -88 -12 0 -37 14 -57 31 -31 28 -37 30 -54 18 -10
-8 -59 -42 -109 -77 -120 -84 -118 -81 -99 -142 16 -48 14 -80 -3 -80 -5 0
-29 -16 -55 -36 -26 -19 -52 -33 -57 -32 -6 2 -24 60 -39 129 -15 68 -50 225
-78 349 -28 124 -51 230 -51 237 0 12 86 83 100 83 4 0 49 -26 102 -57z"/>
<path d="M13824 4488 c3 -13 15 -66 27 -118 12 -52 25 -99 30 -104 7 -8 158
92 158 107 1 4 -13 16 -30 25 -17 9 -64 38 -104 65 -40 26 -76 47 -80 47 -4 0
-5 -10 -1 -22z"/>
<path d="M6467 4623 c-4 -3 -7 -14 -7 -24 0 -9 -9 -19 -20 -22 -15 -4 -20 -14
-20 -40 0 -26 -5 -36 -20 -40 -11 -3 -20 -12 -20 -20 0 -8 -7 -17 -15 -21 -10
-4 -15 1 -15 15 0 14 -5 19 -17 17 -23 -4 -30 -46 -9 -54 19 -7 21 -54 3 -54
-7 0 -21 -16 -30 -36 -10 -19 -22 -32 -27 -29 -6 4 -10 -7 -10 -24 0 -20 -5
-31 -14 -31 -16 0 -26 -21 -26 -55 0 -14 -7 -25 -20 -28 -11 -3 -20 -12 -20
-21 0 -9 -4 -16 -8 -16 -5 0 -17 -17 -28 -37 -10 -21 -25 -43 -32 -48 -8 -6
-12 -24 -10 -40 3 -26 8 -30 37 -33 23 -2 35 -9 38 -23 3 -12 14 -19 29 -19
22 0 29 -10 25 -33 -1 -4 22 -7 51 -5 l53 3 3 38 c2 24 8 37 17 37 9 0 17 15
21 40 4 23 12 40 20 40 7 0 15 10 17 23 l4 22 8 -22 c4 -13 14 -23 21 -23 12
0 13 -13 9 -65 -3 -36 -7 -93 -10 -128 -7 -90 12 -127 66 -127 32 0 39 -3 39
-20 0 -18 7 -20 58 -20 77 1 118 34 77 64 -11 8 -16 36 -19 114 l-3 102 35 0
c20 0 32 3 29 7 -13 13 16 33 48 33 24 0 34 5 38 20 3 11 12 20 21 20 9 0 16
7 16 15 0 9 11 20 25 25 19 7 25 17 25 38 0 16 5 44 12 62 10 30 12 32 19 14
5 -13 8 -7 8 23 1 32 -4 46 -19 55 -15 10 -20 24 -20 58 0 37 -5 49 -25 64
-14 10 -25 25 -25 32 0 8 -9 14 -20 14 -13 0 -20 7 -20 20 0 16 -7 20 -36 20
-27 0 -37 5 -41 20 -3 11 -14 20 -25 20 -11 0 -22 9 -25 20 -4 14 -14 20 -35
20 -21 0 -31 6 -35 19 -3 12 -17 21 -41 25 -49 8 -97 8 -105 -1z m170 -83
c133 -81 190 -132 219 -194 27 -59 30 -111 9 -162 -32 -77 -112 -144 -172
-144 -66 0 -64 3 -63 -164 2 -119 0 -150 -11 -148 -7 2 -42 22 -77 45 l-64 42
6 125 c3 69 2 130 -2 135 -12 18 -64 55 -77 55 -10 0 -107 -142 -119 -175 -4
-11 -136 55 -136 69 0 4 46 81 103 170 56 88 136 216 176 284 51 84 80 122 92
122 10 0 62 -27 116 -60z"/>
<path d="M6563 4403 c-7 -3 -13 -10 -13 -16 0 -7 -16 -36 -36 -65 -19 -30 -33
-60 -30 -68 8 -20 94 -73 132 -80 38 -7 78 16 100 57 18 36 10 70 -24 102 -37
34 -114 76 -129 70z"/>
<path d="M13060 4326 c0 -16 -21 -26 -56 -26 -14 0 -24 -6 -24 -14 0 -15 -21
-26 -50 -26 -10 0 -20 -9 -23 -20 -4 -15 -14 -20 -41 -20 -29 0 -36 -4 -36
-20 0 -17 -7 -20 -50 -20 -43 0 -50 -3 -55 -23 -4 -12 -1 -35 4 -51 13 -33 14
-56 2 -56 -4 0 -12 19 -17 42 l-9 43 -22 -22 c-11 -11 -35 -24 -52 -28 l-31
-7 6 -54 c6 -47 5 -54 -9 -48 -10 3 -17 20 -19 42 -3 36 -4 37 -49 40 -40 3
-47 0 -52 -18 -4 -17 -13 -20 -58 -20 -29 0 -49 -3 -46 -7 14 -14 -17 -33 -54
-33 -27 0 -39 -4 -39 -14 0 -18 -22 -26 -72 -26 -23 0 -38 -3 -35 -7 15 -14
-18 -33 -59 -33 -24 0 -43 -3 -43 -7 4 -25 -4 -33 -32 -33 l-31 0 7 -82 c10
-114 13 -118 84 -118 51 0 59 3 64 21 5 17 12 20 49 17 l43 -3 3 -54 c3 -43 7
-54 23 -58 14 -4 19 -14 19 -40 0 -26 5 -36 20 -40 17 -5 20 -14 20 -60 0 -46
3 -56 20 -60 16 -4 20 -14 20 -49 0 -29 4 -43 12 -41 7 1 15 -13 18 -33 l5
-35 78 -3 c62 -2 77 0 77 12 0 8 18 20 43 28 49 15 63 49 28 68 -15 8 -21 21
-21 46 0 27 -5 37 -20 41 -17 5 -20 14 -20 60 0 46 -3 56 -20 60 -16 4 -20 14
-20 50 0 27 -4 42 -10 38 -14 -8 -30 38 -30 86 0 28 -4 39 -15 39 -15 0 -32
46 -21 57 4 4 39 9 79 12 l72 6 3 63 3 62 37 2 c20 0 49 0 65 -1 25 -2 27 1
27 33 0 25 4 36 15 36 11 0 15 -11 15 -36 0 -27 5 -37 20 -41 15 -4 20 -14 20
-40 0 -26 5 -36 20 -40 14 -4 20 -14 20 -34 0 -21 4 -27 14 -23 11 4 17 -4 21
-29 4 -20 13 -38 20 -41 8 -3 17 -21 20 -40 5 -22 14 -36 26 -39 15 -4 19 -14
19 -46 0 -30 3 -39 14 -35 10 4 16 -7 21 -38 10 -57 29 -78 75 -78 29 0 39 5
43 20 4 15 14 20 41 20 26 0 36 4 36 15 0 9 11 20 25 25 22 8 25 16 25 55 0
34 -5 48 -20 57 -25 16 -26 41 -3 68 29 34 80 25 74 -12 0 -5 13 -8 30 -8 22
0 32 -5 36 -20 5 -17 14 -20 63 -20 49 0 58 3 63 20 4 16 14 20 49 20 53 0 68
13 68 57 0 21 6 36 15 39 20 8 19 40 -1 48 -9 4 -23 1 -30 -5 -11 -9 -15 -7
-20 5 -4 11 -19 16 -51 16 -36 0 -46 4 -50 19 -3 13 -15 21 -36 23 -17 2 -32
9 -35 16 -5 18 53 16 72 -3 21 -22 35 -18 42 11 8 30 -7 44 -48 44 -21 0 -28
5 -28 20 0 13 -7 20 -20 20 -16 0 -20 -7 -20 -36 0 -29 -3 -35 -17 -32 -10 2
-16 11 -14 19 24 92 12 244 -21 254 -9 4 -20 15 -23 26 -4 10 -15 19 -26 19
-17 0 -24 11 -20 33 0 4 -14 7 -33 7 -44 0 -66 9 -66 26 0 11 -16 14 -65 14
-49 0 -65 -3 -65 -14z m174 -65 c102 -45 156 -191 105 -285 -11 -21 -17 -42
-12 -47 13 -13 181 -108 220 -124 37 -16 39 -32 7 -49 -10 -6 -36 -21 -56 -33
-21 -13 -44 -23 -53 -23 -8 0 -63 27 -121 60 -112 63 -139 70 -180 43 -30 -19
-28 -39 14 -110 32 -54 57 -112 51 -117 -2 -2 -28 -18 -58 -36 -52 -30 -55
-31 -72 -13 -9 10 -81 140 -159 288 -78 149 -146 274 -151 279 -16 18 -10 24
69 69 228 131 288 146 396 98z m-680 -312 c11 -34 15 -64 10 -68 -5 -5 -39
-18 -76 -31 -37 -12 -70 -26 -73 -31 -7 -10 41 -147 127 -367 34 -84 59 -154
57 -155 -2 -2 -32 -12 -66 -24 -52 -18 -65 -20 -76 -9 -7 7 -53 122 -102 254
-50 133 -95 242 -100 242 -6 0 -42 -13 -80 -30 -39 -16 -75 -30 -81 -30 -14 0
-57 107 -50 125 3 8 12 15 19 15 12 0 177 63 407 155 58 23 63 20 84 -46z"/>
<path d="M13042 4111 c-35 -15 -68 -33 -74 -39 -7 -7 2 -32 33 -86 24 -42 47
-76 51 -76 18 0 112 53 134 75 30 31 31 72 1 116 -30 45 -64 47 -145 10z"/>
<path d="M7175 4184 c-8 -19 -19 -33 -24 -30 -4 3 -11 -17 -15 -44 -8 -57 -26
-67 -26 -14 0 28 -3 35 -17 32 -23 -4 -30 -46 -9 -54 25 -9 21 -80 -4 -94 -14
-7 -20 -21 -20 -44 0 -25 -5 -35 -20 -39 -15 -4 -20 -14 -20 -41 0 -25 -6 -40
-20 -48 -15 -10 -20 -24 -20 -59 0 -38 -4 -48 -19 -52 -13 -3 -21 -15 -23 -38
-3 -32 -28 -55 -28 -25 0 9 -5 16 -10 16 -17 0 -23 -30 -12 -53 6 -12 13 -38
14 -57 3 -34 5 -35 46 -38 38 -3 47 -10 43 -34 0 -5 24 -8 54 -8 69 0 95 22
95 80 0 29 4 40 15 40 8 0 15 -7 15 -16 0 -11 8 -14 28 -12 25 3 27 7 30 51 2
28 -1 47 -7 47 -6 0 -11 -9 -11 -20 0 -12 -7 -20 -16 -20 -14 0 -15 7 -10 42
9 53 26 66 44 33 7 -14 17 -25 22 -25 6 0 10 -42 10 -100 l0 -100 60 0 c33 0
59 3 59 8 -6 35 43 46 67 15 10 -14 15 -15 24 -6 15 14 5 33 -16 33 -23 0 -11
24 13 28 12 2 23 12 26 23 3 11 14 19 25 19 32 0 35 -17 7 -42 -20 -17 -25
-31 -25 -69 0 -37 -4 -48 -19 -52 -13 -3 -21 -17 -26 -46 -4 -24 -13 -45 -21
-48 -39 -15 1 -62 52 -63 32 0 60 -21 47 -34 -4 -4 22 -6 57 -4 l65 3 3 36 c2
27 9 38 23 42 14 4 19 14 19 39 0 22 6 37 19 45 12 8 21 29 25 63 5 40 10 50
21 46 12 -4 15 4 15 34 0 29 5 42 20 50 14 7 20 21 20 44 0 25 5 35 20 39 17
4 20 14 20 57 0 43 3 53 20 57 11 3 20 14 20 24 0 10 9 24 20 31 14 9 20 24
20 47 0 37 -21 60 -57 61 -32 0 -53 10 -53 26 0 10 -14 14 -54 14 -45 0 -54
-3 -59 -20 -3 -11 -14 -20 -25 -20 -11 0 -22 -9 -25 -20 -4 -15 -14 -20 -38
-20 -18 0 -29 -3 -26 -7 11 -11 -14 -33 -38 -33 -14 0 -25 -7 -28 -20 -3 -13
-14 -20 -30 -20 -16 0 -26 -7 -30 -20 -3 -14 -14 -20 -31 -20 l-26 0 0 111 c0
93 -3 114 -17 124 -12 9 -18 33 -22 86 l-6 74 -45 5 c-35 4 -45 9 -44 23 2 14
-7 17 -47 17 -46 0 -49 -2 -64 -36z m104 -23 c20 -11 43 -26 49 -34 7 -8 26
-102 44 -211 17 -108 36 -196 41 -196 6 0 67 37 136 82 69 44 146 94 171 110
25 16 52 27 60 24 83 -27 110 -40 106 -50 -72 -169 -271 -614 -277 -622 -7 -8
-27 -2 -69 20 -57 30 -72 50 -50 72 13 13 150 328 145 333 -3 2 -17 -5 -32
-15 -96 -63 -278 -175 -287 -177 -6 -1 -23 71 -41 177 -17 99 -35 181 -41 183
-6 2 -20 -20 -32 -49 -19 -50 -132 -311 -136 -315 -5 -5 -126 60 -126 68 0 5
11 31 24 57 13 26 65 144 116 262 51 118 101 234 111 258 21 47 33 51 88 23z"/>
<path d="M8375 3771 c3 -6 -3 -15 -14 -21 -13 -6 -18 -16 -14 -26 4 -10 -1
-17 -15 -21 -11 -2 -22 -13 -25 -24 -3 -10 -12 -19 -21 -19 -9 0 -16 -5 -16
-11 0 -7 -11 -22 -25 -35 -14 -13 -25 -34 -25 -49 0 -15 -6 -25 -14 -25 -7 0
-16 -9 -19 -20 -3 -11 -12 -20 -21 -20 -9 0 -16 -5 -16 -11 0 -7 -11 -22 -25
-35 -14 -13 -25 -32 -25 -44 0 -11 -6 -23 -14 -26 -8 -3 -16 -14 -19 -25 -3
-10 -12 -19 -21 -19 -9 0 -16 -7 -16 -16 0 -9 -8 -18 -19 -21 -11 -3 -23 -20
-30 -44 -7 -23 -18 -39 -27 -39 -8 0 -18 -8 -21 -17 -4 -10 -12 -22 -20 -26
-17 -10 -17 -61 0 -75 6 -5 23 -12 37 -14 14 -2 24 -9 22 -16 -1 -9 21 -12 83
-12 70 0 85 3 85 15 0 9 6 18 14 21 8 3 16 14 19 25 4 16 14 19 60 19 36 0 59
-5 67 -15 7 -8 9 -16 4 -17 -5 -1 20 -4 55 -7 l65 -6 -3 -57 c-3 -78 17 -98
98 -98 55 0 91 -16 74 -33 -3 -4 7 -7 24 -7 19 0 33 6 37 16 3 9 6 75 6 147 0
110 -3 133 -17 150 -15 15 -19 43 -22 145 -3 110 -6 128 -22 140 -17 11 -19
26 -19 117 0 117 -5 125 -73 125 -34 0 -64 20 -50 33 3 4 -15 7 -41 7 -27 0
-45 -4 -41 -9z m130 -61 c18 -7 25 -19 29 -52 3 -24 17 -126 30 -228 48 -359
60 -460 53 -466 -4 -4 -37 3 -75 15 l-69 21 -9 62 -9 62 -125 33 c-69 18 -135
32 -147 33 -15 0 -30 -14 -52 -49 l-30 -50 -68 20 c-37 10 -71 19 -75 19 -20
0 0 32 108 173 64 84 162 214 218 290 l101 137 48 -5 c26 -3 59 -10 72 -15z"/>
<path d="M8383 3487 c-30 -33 -135 -178 -131 -181 1 -1 45 -14 97 -28 l93 -26
-5 37 c-3 20 -9 75 -13 124 -4 48 -10 90 -14 92 -4 2 -16 -6 -27 -18z"/>
<path d="M11105 3651 c12 -21 -38 -31 -149 -31 l-115 0 -15 -27 c-20 -41 -11
-273 13 -291 13 -10 17 -36 20 -132 2 -90 6 -117 16 -114 16 7 25 -39 25 -131
0 -104 1 -105 77 -105 38 0 62 4 58 9 -12 20 37 31 139 31 86 0 106 3 106 15
0 16 34 24 120 28 l55 2 3 93 c3 91 2 92 -23 102 -14 5 -25 16 -25 25 0 12
-12 15 -52 14 -29 -1 -45 -3 -35 -6 9 -2 17 -8 17 -13 0 -14 -42 -20 -142 -20
-91 0 -98 1 -98 20 0 17 7 20 46 20 27 0 43 4 39 10 -10 17 42 30 121 30 l74
0 0 85 c0 67 3 87 15 91 22 9 18 42 -5 49 -11 3 -20 10 -20 14 0 7 -20 8 -52
2 -5 0 -8 -7 -8 -15 0 -18 -45 -26 -155 -26 -70 0 -94 3 -98 14 -9 23 2 26 95
26 53 0 87 4 83 9 -9 16 17 26 80 31 l60 5 3 53 c3 47 1 54 -17 59 -17 4 -21
13 -21 44 l0 39 -121 0 c-73 0 -118 -4 -114 -9z m209 -43 c3 -13 6 -44 6 -69
l0 -46 -152 -22 c-84 -13 -154 -24 -155 -25 -2 -1 2 -30 8 -64 13 -73 0 -70
176 -42 69 11 130 17 134 13 4 -4 10 -34 14 -65 l7 -57 -33 -6 c-19 -3 -82
-14 -142 -24 -59 -10 -110 -21 -113 -24 -4 -3 -3 -36 1 -72 6 -58 9 -65 28
-65 23 0 241 36 282 46 26 7 31 -2 40 -78 8 -63 10 -61 -75 -73 -25 -3 -121
-20 -214 -36 -93 -16 -170 -28 -172 -26 -16 15 -115 680 -103 688 6 3 57 12
112 19 56 6 147 20 202 30 136 24 142 24 149 -2z"/>
<path d="M9017 3564 c-6 -58 -25 -96 -29 -58 -1 10 -4 -75 -7 -189 -5 -185 -8
-210 -23 -218 -16 -9 -18 -26 -18 -129 l0 -118 33 3 c45 4 77 -5 77 -21 0 -27
69 -17 100 14 l28 29 4 171 c1 95 6 172 11 172 16 0 25 -49 20 -109 -5 -54 -3
-64 15 -81 28 -27 42 -25 42 5 0 16 6 25 15 25 11 0 15 -11 15 -36 0 -27 5
-37 20 -41 11 -3 20 -13 20 -23 0 -10 6 -20 14 -23 8 -3 17 -20 21 -38 4 -19
15 -33 26 -36 10 -3 19 -14 19 -24 0 -12 7 -19 19 -19 21 0 44 -23 34 -34 -4
-4 26 -6 67 -4 l74 3 11 44 c6 25 16 46 23 49 9 3 12 47 12 167 0 116 4 172
14 196 12 27 15 30 19 13 3 -10 4 51 3 136 l-1 154 -25 6 c-14 4 -24 12 -22
18 1 8 -21 12 -72 12 -65 0 -75 -3 -81 -19 -3 -11 -12 -22 -20 -25 -12 -4 -15
-37 -16 -183 -1 -98 -4 -168 -6 -155 -2 12 -11 22 -19 22 -9 0 -14 11 -14 36
0 27 -5 37 -20 41 -13 3 -20 14 -20 28 0 34 -10 55 -26 55 -8 0 -14 10 -14 25
0 15 6 25 14 25 14 0 26 -21 26 -45 0 -8 12 -27 26 -42 l26 -28 -4 77 c-2 42
-5 79 -8 81 -3 3 -24 8 -47 12 -41 6 -42 6 -45 -27 l-4 -33 -17 38 c-10 20
-24 37 -32 37 -10 0 -15 11 -15 35 0 29 -5 37 -25 45 -14 5 -25 16 -25 25 0
12 -16 15 -94 15 l-93 0 -6 -56z m172 -1 c11 -10 38 -49 59 -88 57 -103 200
-337 216 -353 11 -11 14 1 19 70 4 46 12 141 18 212 l12 129 71 -7 c39 -4 74
-10 77 -14 4 -4 1 -54 -7 -112 -7 -58 -19 -154 -24 -215 -14 -136 -40 -337
-46 -347 -8 -13 -62 -9 -97 6 -31 13 -105 123 -272 405 -32 53 -40 61 -45 45
-4 -10 -16 -108 -26 -217 l-19 -199 -70 7 c-38 4 -73 9 -76 11 -3 2 0 47 7
101 7 54 22 202 34 328 12 127 24 236 26 243 6 20 117 16 143 -5z"/>
<path d="M10235 3571 c9 -15 -29 -31 -73 -31 -31 0 -41 -4 -45 -20 -3 -14 -14
-20 -31 -20 -19 0 -26 -5 -26 -20 0 -13 -7 -20 -19 -20 -10 0 -21 -9 -24 -20
-3 -11 -12 -20 -21 -20 -9 0 -16 -8 -16 -19 0 -10 -9 -21 -20 -24 -15 -4 -20
-14 -20 -40 0 -26 -5 -36 -20 -40 -18 -5 -20 -2 -14 28 6 35 -4 49 -25 36 -14
-9 -5 -81 10 -81 5 0 9 -57 9 -127 0 -69 3 -123 7 -120 13 13 33 -16 33 -49 0
-24 5 -34 19 -39 11 -3 23 -15 26 -26 4 -10 13 -19 22 -19 8 0 17 -9 20 -20 3
-11 14 -20 24 -20 12 0 19 -7 19 -20 0 -17 7 -20 41 -20 32 0 42 -4 46 -20 5
-19 14 -20 161 -20 85 0 152 3 149 7 -13 13 16 33 49 33 24 0 34 5 34 15 0 9
13 18 31 22 20 4 34 14 40 30 5 13 16 26 24 29 19 8 20 40 1 47 -8 3 -16 16
-18 29 -2 17 -11 24 -30 26 -20 2 -28 9 -28 23 0 17 -7 19 -59 19 -50 0 -59
-3 -64 -20 -4 -16 -14 -20 -43 -20 -20 0 -34 -3 -31 -7 15 -15 -18 -33 -60
-33 -36 0 -46 4 -50 19 -4 14 -15 21 -41 23 -33 3 -37 7 -45 41 -5 21 -15 37
-23 37 -19 0 -20 145 -1 157 8 4 16 16 20 26 3 9 15 17 26 17 10 0 21 9 24 20
5 18 14 20 97 20 83 0 92 -2 97 -20 5 -18 14 -20 73 -20 58 0 68 3 73 19 2 11
15 21 28 23 21 3 24 9 27 51 2 26 7 47 13 47 5 0 9 9 9 20 0 11 -7 20 -15 20
-8 0 -15 -4 -15 -10 0 -18 -22 -10 -27 10 -3 13 -14 20 -28 20 -24 0 -49 22
-38 33 3 4 -11 7 -33 7 -56 0 -86 10 -80 26 4 11 -13 14 -85 14 -54 0 -88 -4
-84 -9z m193 -59 c61 -19 152 -75 152 -93 0 -14 -72 -99 -84 -99 -5 0 -32 15
-60 33 -44 28 -59 32 -116 32 -135 -1 -220 -86 -220 -220 0 -71 17 -111 67
-156 91 -82 196 -78 324 13 14 9 25 4 63 -27 25 -20 46 -42 46 -47 0 -17 -64
-68 -115 -92 -245 -117 -517 27 -542 286 -23 251 234 447 485 370z"/>
</g>
</svg>
